<?xml version="1.0" encoding="utf-8"?>
<!-- Generator: Adobe Illustrator 23.0.3, SVG Export Plug-In . SVG Version: 6.00 Build 0)  -->
<svg version="1.1" id="Calque_1" xmlns="http://www.w3.org/2000/svg" xmlns:xlink="http://www.w3.org/1999/xlink" x="0px" y="0px"
	 viewBox="0 0 252 226" style="enable-background:new 0 0 252 226;" xml:space="preserve">
<style type="text/css">
	.st0{fill:#EC863E;}
</style>
<g>
	<path class="st0" d="M118.6,155.2c-8,0-16.2-0.7-24.6-2.4c-5-1-8.5-5.7-8-10.8v-0.1c0.5-5.5,5.4-9.5,10.9-9
		c0.8,0.1,1.6,0.2,2.3,0.5c26,4.8,51.2-1.4,73.5-6.9c6.4-1.6,12.5-3.1,18.3-4.3c32.1-27.5,46.4-53.1,39.1-70.4
		c-6.5-15.5-31-25.2-56.9-22.5c-12.1,1.2-23.2,5.1-31.1,11l0,0c-0.1,0.1-0.3,0.2-0.4,0.3c-0.1,0.1-0.3,0.2-0.4,0.3
		c-3.2,1.9-6.3,4.1-9.2,6.4c-9.7,7.9-17.1,18-22.2,30.2c-0.9,4.8-5.3,8.3-10.3,8.1c-5.5-0.3-9.7-5-9.5-10.5v-0.6
		c0.1-1.1,0.3-2.2,0.7-3.2c6.4-15.9,16-29.1,28.6-39.4c3.5-2.9,7.3-5.5,11.2-7.9c10.9-7.9,25-13,40.6-14.5
		c15.7-1.6,31.9,0.5,45.4,5.9c15.6,6.2,26.6,16.1,31.9,28.8c8,18.8,6.3,50.7-46.6,95.1c-1.3,1.1-2.9,1.9-4.6,2.2
		c-6.1,1.1-12.8,2.8-19.8,4.5C160.4,150.2,140.2,155.2,118.6,155.2z"/>
	<path class="st0" d="M195,226H58c-5.5,0-10-4.5-10-10v-72.2C0.9,115.2-1.4,78.1-0.1,63.2C2.2,36,20,12.7,45.2,3.9
		C74-6.2,106,4.3,132.9,32.7c1.9,2,2.9,4.7,2.7,7.5s-1.5,5.4-3.7,7.1c-9.6,7.9-17.1,18-22.2,30.2c-0.9,4.8-5.3,8.3-10.3,8.1
		c-5.5-0.3-9.7-5-9.5-10.5v-0.6c0.1-1.1,0.3-2.2,0.7-3.2c4.9-12.2,11.8-22.9,20.4-31.9C91.7,22.3,70.5,16.2,51.8,22.8
		C34,29,21.4,45.5,19.8,64.9c-2.1,24.5,13.6,48,43.1,64.4C66,131,68,134.4,68,138v68h117v-61.9c-2.4,0.6-4.9,1.2-7.4,1.8
		c-23.5,5.8-52.7,13.1-83.5,6.9c-5-1-8.5-5.7-8-10.8v-0.1c0.5-5.5,5.4-9.5,10.9-9c0.8,0.1,1.6,0.2,2.3,0.5c26,4.8,51.2-1.4,73.5-6.9
		c7.4-1.8,14.3-3.5,20.9-4.8c4.5-0.8,8.9,1.4,10.9,5.6c1.1,2.4,1.2,5.1,0.4,7.5V216C205,221.5,200.5,226,195,226z"/>
</g>
</svg>
