<?xml version="1.0" encoding="utf-8"?>
<!-- Generator: Adobe Illustrator 23.1.1, SVG Export Plug-In . SVG Version: 6.00 Build 0)  -->
<svg version="1.1" id="Calque_1" xmlns="http://www.w3.org/2000/svg" xmlns:xlink="http://www.w3.org/1999/xlink" x="0px" y="0px"
	 viewBox="0 0 553.7 192.6" style="enable-background:new 0 0 553.7 192.6;" xml:space="preserve">
<style type="text/css">
	.st0{fill:#EC853E;}
	.st1{fill:#BF3A8C;}
	.st2{fill:none;stroke:#1D1D1B;stroke-width:10;stroke-linecap:round;stroke-miterlimit:10;}
	.st3{fill:#FFFFFF;}
	.st4{fill:#FFFFFF;stroke:#BF3A8C;stroke-miterlimit:10;}
	.st5{fill:#2F4C9B;}
</style>
<path class="st0" d="M520.1,192.4l-6.5-6.6c19.9-19.5,30.9-45.7,30.9-73.5c0-27.5-10.7-53.4-30.1-72.8C494.9,20,469.1,9.2,441.6,9.2
	S388.2,20,368.8,39.4c-19.4,19.5-30.1,45.3-30.1,72.8c0,27.4,10.6,53.1,29.9,72.6l-6.6,6.5c-21-21.2-32.6-49.2-32.6-79.1
	c0-30,11.7-58.2,32.9-79.4C383.4,11.7,411.6,0,441.6,0s58.1,11.7,79.3,32.9c21.2,21.2,32.9,49.4,32.9,79.4c0,15.3-3,30.2-9,44.2
	C538.9,169.9,530.6,182,520.1,192.4z"/>
<path class="st1" d="M493.7,188.7c24-16.6,39.8-44.3,39.8-75.7c0-50.8-41.1-91.9-91.9-91.9s-91.9,41.1-91.9,91.9
	c0,31.2,15.6,58.8,39.4,75.5"/>
<path class="st0" d="M441.6,9.2H249.2c-2.6,0-4.6-2.1-4.6-4.6s2.1-4.6,4.6-4.6h192.4c2.6,0,4.6,2.1,4.6,4.6S444.1,9.2,441.6,9.2z"/>
<path class="st0" d="M378.8,28.8H222c-2.6,0-4.6-2.1-4.6-4.6s2.1-4.6,4.6-4.6h156.9c2.6,0,4.6,2.1,4.6,4.6S381.4,28.8,378.8,28.8z"
	/>
<path class="st0" d="M345.4,170.7h-312c-2.6,0-4.6-2.1-4.6-4.6s2.1-4.6,4.6-4.6h312c2.6,0,4.6,2.1,4.6,4.6S347.9,170.7,345.4,170.7z
	"/>
<path class="st2" d="M503.4,126.5"/>
<path class="st2" d="M503.4,133.5"/>
<path class="st3" d="M414.8,134.7c-2.3,0-1.9,4.2-0.1,4l4.3,0.4c0,0,3.2,3.8,2.6,6.6c-0.6,2.8-2.4,9.5-1.3,13.8l-2.7,3.2l12.6,10.7
	l6.8-7.9c0,0,7.3-11.1,7-12c0,0,0-0.1,0-0.1c0,0,21.8-14.3,23.1-13.6c0,0,6.1-0.1,8,0c1.9,0.1,4.7-5.1,0-5.1s-12.5,0-12.5,0
	s-14.4,6.5-19.5,7.1s-13.2,2.1-12.9,2.6c0.3,0.5-2.6-8-7.1-9.7H414.8z"/>
<circle class="st3" cx="441.6" cy="76.7" r="5"/>
<path class="st4" d="M390.9,130.7c0-27.8,22.6-50.4,50.4-50.4c27.8,0,50.4,22.6,50.4,50.4"/>
<path class="st4" d="M500,134.7H382.5c-2.2,0-4-1.8-4-4c0-2.2,1.8-4,4-4H500c2.2,0,4,1.8,4,4C504.1,132.9,502.3,134.7,500,134.7z"/>
<g>
	<g>
		<path class="st1" d="M473.9,107.4c-5.3-6.7-12.2-12-20.1-15.5c-1-0.4-1.4-1.6-0.9-2.6v0c0.4-0.9,1.5-1.3,2.3-1
			c8.5,3.5,15.9,9.3,21.5,16.5c0.6,0.7,0.5,1.8-0.1,2.5l0,0C475.8,108.3,474.6,108.3,473.9,107.4z"/>
		<path class="st1" d="M475.2,108.3C475.2,108.3,475.2,108.3,475.2,108.3c-0.6,0-1.2-0.3-1.5-0.7l0,0c-5.4-6.7-12.3-12.1-20-15.4
			c-0.5-0.2-0.9-0.6-1.1-1.1c-0.2-0.5-0.2-1.2,0.1-1.7c0.5-1,1.6-1.5,2.6-1.1c8.4,3.5,15.9,9.2,21.6,16.6c0.6,0.8,0.6,2-0.1,2.8l0,0
			C476.3,108,475.8,108.3,475.2,108.3z M454.5,88.5c-0.6,0-1.2,0.4-1.5,1c-0.2,0.4-0.2,0.9-0.1,1.4c0.2,0.4,0.5,0.8,0.9,0.9
			c7.8,3.4,14.7,8.8,20.2,15.5l0,0c0.3,0.4,0.7,0.6,1.2,0.6c0.5,0,0.9-0.2,1.3-0.6l0,0c0.6-0.6,0.6-1.6,0.1-2.3
			c-5.7-7.3-13.1-13-21.5-16.5C454.9,88.5,454.7,88.5,454.5,88.5z"/>
	</g>
</g>
<g>
	<path class="st1" d="M143.4,103.8c0-5.2,3.7-11.3,11.4-15.1c-2.1-2.3-3.7-5.9-3.7-10.2c0-9.3,8.4-19.2,18.5-19.2
		c6.8,0,9.8,3.2,9.8,8.7c0,7.2-4.5,10.7-8.6,10.7c-1.6,0-2.3-0.6-2.6-1.3c1-2,1.5-3.9,1.5-5.9c0-2.8-1-3.7-2.1-3.7
		c-2.6,0-5.6,5.2-5.6,10.8c0,2.6,0.6,5.4,1.3,7.3c1.6-0.4,4-0.6,5.4-0.6c2.8,0,3.5,0.8,3.5,1.8c0,4.2-3.4,8.3-7,8.3
		c-1.4,0-3.4-0.8-4.9-2c-2,2-3.3,5.2-3.3,7.2c0,3.7,2,6,6.3,6c6.9,0,16-6.6,20.3-13c1.5,0,2.8,0.6,2.8,2.3
		c0,4.7-12.8,20.4-28.2,20.4C149.1,116.6,143.4,111.4,143.4,103.8z"/>
	<path class="st1" d="M187.6,112.6c-4.2,0-7.2-3.4-7.2-10.1c0-11,9.1-22.5,16.4-22.5c1,0,1.5,0.1,1.9,0.5l0.2-4.2
		c0.6-0.7,1.5-1,2.6-1c5,0,7.7,3.4,7.7,5.9c0,1-0.2,2.8-0.8,4.8c-2.6,9.2-3.5,13.8-3.5,15.7c0,1.5,0.3,1.7,0.9,1.7
		c1.5,0,5.3-2.8,9.9-9.4c1.5,0,2.7,1,2.7,2.3c0,4.8-12.1,16.5-17.4,16.5c-3.2,0-5.3-1.3-5.3-6c0-0.8,0.1-1.8,0.2-2.9
		C193.5,110.8,190.2,112.6,187.6,112.6z M198.3,85.3c-3.7,2.3-7.2,8.4-7.2,14c0,2.7,0.9,3,1.9,3c1,0,2-0.7,2.9-1.8L198.3,85.3z"/>
	<path class="st1" d="M217,88.3c-1.5-0.1-2.7-0.3-2.7-1.9c0-2.3,1.6-4.3,4.6-4.4c0.1-1.5,0.1-2.7,0.4-5.4c0.7-6.4,4.6-11,9.6-11
		c3.4,0,4.9,1.2,4.9,4.3c0,2.3-0.9,4-4.8,11.8c2.3-0.1,5.3-0.3,6.3-0.5c0.9,0.7,1.4,2,1.4,3.1c0,2.8-1.8,4.9-4.2,4.9
		c-1.7,0-3.2-0.1-5.3-0.4c-2,8-2.6,12.1-2.6,13.2c0,1.8,0.4,2.6,2,2.6c3,0,8-3.5,13-10.5c1.4,0,2.9,1,2.9,2.5
		c0,4.3-11.2,17.4-19.6,17.4c-5.6,0-9.4-2.9-9.4-9.7C213.5,102.1,214.2,97.6,217,88.3z"/>
	<path class="st1" d="M264.8,106.1c0-4.7,7.1-9.4,12.4-9.4c3.5,0,4.5,1.4,4.5,4.1c0,5.6-3.9,13-9.1,13
		C268.4,113.8,264.8,109.9,264.8,106.1z M279.5,91.2c-4,0-6.4-4.4-6.4-8.9c0-4.2,1.2-14.1,3.5-22.7c-0.8-1.8-1.2-4-1.2-6
		c0-5,6.9-10.9,14.1-10.9c4,0,5.4,1.5,5.4,4.5c0,2.5-1.5,7.5-5,13.8c-3.1,9-5.5,17.9-7.9,29.5C281.5,90.9,280.5,91.2,279.5,91.2z"/>
	<path class="st1" d="M295.7,88.3c-1.5-0.1-2.7-0.3-2.7-1.9c0-2.3,1.6-4.3,4.6-4.4c0.1-1.5,0.1-2.7,0.4-5.4c0.7-6.4,4.6-11,9.6-11
		c3.4,0,4.9,1.2,4.9,4.3c0,2.3-0.9,4-4.8,11.8c2.3-0.1,5.3-0.3,6.3-0.5c0.9,0.7,1.4,2,1.4,3.1c0,2.8-1.8,4.9-4.2,4.9
		c-1.7,0-3.2-0.1-5.3-0.4c-2,8-2.6,12.1-2.6,13.2c0,1.8,0.4,2.6,2,2.6c3,0,8-3.5,13-10.5c1.4,0,2.9,1,2.9,2.5
		c0,4.3-11.2,17.4-19.6,17.4c-5.6,0-9.4-2.9-9.4-9.7C292.2,102.1,292.9,97.6,295.7,88.3z"/>
</g>
<path class="st0" d="M518.1,192.6H4.6c-2.6,0-4.6-2.1-4.6-4.6c0-2.6,2.1-4.6,4.6-4.6h513.5c2.6,0,4.6,2.1,4.6,4.6
	C522.7,190.5,520.7,192.6,518.1,192.6z"/>
<g>
	<path class="st3" d="M454.6,55.1C454.6,55.1,454.6,55.1,454.6,55.1c-0.1-0.1-0.1-0.1-0.1-0.1C454.6,55.1,454.6,55.1,454.6,55.1z"/>
	<path class="st3" d="M460.9,61.3c0,3.3-1.2,6.4-3.5,8.8c-0.4,0.4-0.9,0.6-1.4,0.6c-0.5,0-0.9-0.2-1.3-0.5c-0.8-0.7-0.8-1.9-0.1-2.7
		c1.6-1.7,2.4-3.9,2.4-6.1c0-2.3-0.9-4.5-2.4-6.2c0,0,0,0,0,0c0,0-0.1-0.1-0.1-0.1l0,0c-1.9-2.3-2.9-5.2-2.9-8.1c0-3,1-5.9,2.9-8.2
		c0.7-0.8,1.9-0.9,2.7-0.3c0.8,0.7,0.9,1.9,0.3,2.7c-1.3,1.6-2.1,3.6-2.1,5.7c0,2.1,0.7,4.1,2,5.7c0,0,0,0,0,0
		C459.7,55,460.9,58.1,460.9,61.3z"/>
</g>
<g>
	<path class="st3" d="M439.1,48.1C439,48.1,439,48.1,439.1,48.1C439,48,439,48,439,48C439,48,439,48.1,439.1,48.1z"/>
	<path class="st3" d="M445.4,54.3c0,3.3-1.2,6.4-3.5,8.8c-0.4,0.4-0.9,0.6-1.4,0.6c-0.5,0-0.9-0.2-1.3-0.5c-0.8-0.7-0.8-1.9-0.1-2.7
		c1.6-1.7,2.4-3.9,2.4-6.1c0-2.3-0.9-4.5-2.4-6.2c0,0,0,0,0,0c0,0-0.1-0.1-0.1-0.1l0,0c-1.9-2.3-2.9-5.2-2.9-8.1c0-3,1-5.9,2.9-8.2
		c0.7-0.8,1.9-0.9,2.7-0.3c0.8,0.7,0.9,1.9,0.3,2.7c-1.3,1.6-2.1,3.6-2.1,5.7c0,2.1,0.7,4.1,2,5.7c0,0,0,0,0,0
		C444.2,48,445.4,51.1,445.4,54.3z"/>
</g>
<g>
	<path class="st3" d="M424.3,55.1C424.3,55.1,424.3,55.1,424.3,55.1c-0.1-0.1-0.1-0.1-0.1-0.1C424.2,55.1,424.3,55.1,424.3,55.1z"/>
	<path class="st3" d="M430.6,61.3c0,3.3-1.2,6.4-3.5,8.8c-0.4,0.4-0.9,0.6-1.4,0.6c-0.5,0-0.9-0.2-1.3-0.5c-0.8-0.7-0.8-1.9-0.1-2.7
		c1.6-1.7,2.4-3.9,2.4-6.1c0-2.3-0.9-4.5-2.4-6.2c0,0,0,0,0,0c0,0-0.1-0.1-0.1-0.1l0,0c-1.9-2.3-2.9-5.2-2.9-8.1c0-3,1-5.9,2.9-8.2
		c0.7-0.8,1.9-0.9,2.7-0.3c0.8,0.7,0.9,1.9,0.3,2.7c-1.3,1.6-2.1,3.6-2.1,5.7c0,2.1,0.7,4.1,2,5.7c0,0,0,0,0,0
		C429.4,55,430.6,58.1,430.6,61.3z"/>
</g>
<g>
	<path class="st5" d="M63.7,144.9l1.8,4.4h-2l-1.7-4.1h-3.5l-1.1,4.1h-1.8l3.7-13.9h5.3c2.7,0,4.3,2.1,3.5,4.9
		C67.5,142.4,66.1,144.1,63.7,144.9z M62.3,143.7c1.6,0,3.4-1.4,4-3.4c0.5-2-0.6-3.4-2.1-3.4h-3.6l-1.8,6.9H62.3z"/>
	<path class="st5" d="M76.4,149.3H67l3.7-13.9h9.1l-0.4,1.4H72l-1.2,4.5h6l-0.4,1.5h-6l-1.3,5h7.7L76.4,149.3z"/>
	<path class="st5" d="M90.2,149.3h-1.8l0.6-2.4c-1.7,2-3.7,2.5-5.5,2.5c-3.9,0-5.9-3-4.8-7c1.1-4,4.3-7,8.4-7c2,0,3.6,0.7,4.5,2
		l-1.5,1.2c-0.6-0.9-1.7-1.7-3.4-1.7c-2.9,0-5.3,2.1-6.3,5.6c-0.8,2.9,0.4,5.5,3.5,5.5c2.9,0,5.3-2,6.1-4.8h-3.7l0.4-1.5h5.4
		L90.2,149.3z"/>
	<path class="st5" d="M101.1,145.9h-6l-2.2,3.3H91l9.5-13.9h0.9l2.1,13.9h-1.9L101.1,145.9z M100.9,144.5l-0.8-6.2l-4,6.2H100.9z"/>
	<path class="st5" d="M113.7,149.3h-9.1l3.7-13.9h1.8l-3.3,12.4h7.4L113.7,149.3z"/>
	<path class="st5" d="M124.3,149.3h-9.4l3.7-13.9h9.1l-0.4,1.4H120l-1.2,4.5h6l-0.4,1.5h-6l-1.3,5h7.7L124.3,149.3z"/>
	<path class="st5" d="M127.5,147.8h8.2l-0.4,1.4h-9.9l0.5-2l11-10.5h-8.2l0.4-1.4h9.9l-0.5,2L127.5,147.8z"/>
	<path class="st5" d="M136.7,145.1l0.4-1.3h6.5l-0.4,1.3H136.7z"/>
	<path class="st5" d="M148,135.4h1.9l2.3,10.9l8.1-10.9h1.9l-10.4,13.9H151L148,135.4z"/>
	<path class="st5" d="M174.1,142.4c-1.1,4-4.7,7-8.9,7c-3.8,0-6.2-3-5.1-7c1.1-4,4.7-7,8.9-7C172.8,135.3,175.1,138.4,174.1,142.4z
		 M161.9,142.4c-0.8,2.9,0.7,5.6,3.7,5.6c3.1,0,6-2.7,6.7-5.6c0.8-2.9-0.7-5.6-3.8-5.6C165.5,136.8,162.6,139.5,161.9,142.4z"/>
	<path class="st5" d="M186.1,143.8c-0.6,2.2-2.4,5.6-7,5.6c-4.6,0-4.6-3.4-4-5.6l2.3-8.3h1.7l-2.2,8.3c-0.2,0.9-0.9,4.1,2.7,4.1
		c3.6,0,4.6-3.3,4.8-4.1l2.2-8.3h1.8L186.1,143.8z"/>
	<path class="st5" d="M196.3,146.5c-0.6,1.8-2.2,2.8-4.6,2.9c-2.4,0-4.4-1.3-5.2-2.6l1.5-1.2c0.5,1.1,1.5,2.3,3.7,2.3
		c1.8,0,2.7-0.5,3.1-1.7c0.4-1.2-0.5-2.1-2.6-3c-1.7-0.8-3.6-1.9-2.9-4.6c0.4-1.5,2-3.1,4.7-3.1c2.2,0,3.4,0.8,4.8,2.3l-1.5,1.1
		c-0.7-1.1-1.7-1.9-3.3-1.9c-1.5,0-2.8,0.9-3.1,2.1c-0.5,1.9,1.6,2.5,2.8,3C195.2,142.5,197.1,144.1,196.3,146.5z"/>
	<path class="st5" d="M211.6,149.4c-3.9,0-6.2-3.1-5.1-7c1.1-3.9,4.4-7,8.9-7c1.9,0,3.4,1,4.2,2.3l-1.3,1.2c-0.8-1.3-1.8-2-3.5-2
		c-2.5,0-5.7,2.5-6.5,5.6c-0.8,3.1,1,5.6,3.5,5.6c1.7,0,3-0.6,4.5-2.1l0.7,1.2C215.4,148.6,213.5,149.4,211.6,149.4z"/>
	<path class="st5" d="M228.2,149.3h-1.8l1.7-6.2h-6.8l-1.6,6.2H218l3.7-13.9h1.8l-1.7,6.2h6.8l1.6-6.2h1.8L228.2,149.3z"/>
	<path class="st5" d="M239.5,149.3h-9.4l3.7-13.9h9.1l-0.4,1.4h-7.3l-1.2,4.5h6l-0.4,1.5h-6l-1.3,5h7.7L239.5,149.3z"/>
	<path class="st5" d="M242.7,147.8h8.2l-0.4,1.4h-9.9l0.5-2l11-10.5h-8.2l0.4-1.4h9.9l-0.5,2L242.7,147.8z"/>
	<path class="st5" d="M251.9,145.1l0.4-1.3h6.4l-0.4,1.3H251.9z"/>
	<path class="st5" d="M263.2,135.4h1.9l2.3,10.9l8.1-10.9h1.9l-10.4,13.9h-0.9L263.2,135.4z"/>
	<path class="st5" d="M289.3,142.4c-1.1,4-4.7,7-8.9,7c-3.8,0-6.2-3-5.1-7c1.1-4,4.7-7,8.9-7C288,135.3,290.3,138.4,289.3,142.4z
		 M277.1,142.4c-0.8,2.9,0.7,5.6,3.7,5.6c3.1,0,6-2.7,6.7-5.6c0.8-2.9-0.7-5.6-3.8-5.6C280.7,136.8,277.8,139.5,277.1,142.4z"/>
	<path class="st5" d="M301.3,143.8c-0.6,2.2-2.4,5.6-7,5.6c-4.6,0-4.6-3.4-4-5.6l2.3-8.3h1.7l-2.2,8.3c-0.2,0.9-0.9,4.1,2.7,4.1
		c3.6,0,4.6-3.3,4.8-4.1l2.2-8.3h1.8L301.3,143.8z"/>
	<path class="st5" d="M311.5,146.5c-0.6,1.8-2.2,2.8-4.6,2.9c-2.4,0-4.4-1.3-5.2-2.6l1.5-1.2c0.5,1.1,1.5,2.3,3.7,2.3
		c1.8,0,2.7-0.5,3.1-1.7c0.4-1.2-0.5-2.1-2.6-3c-1.7-0.8-3.6-1.9-2.9-4.6c0.4-1.5,2-3.1,4.7-3.1c2.2,0,3.4,0.8,4.8,2.3l-1.5,1.1
		c-0.7-1.1-1.7-1.9-3.3-1.9c-1.5,0-2.8,0.9-3.1,2.1c-0.5,1.9,1.6,2.5,2.8,3C310.4,142.5,312.3,144.1,311.5,146.5z"/>
	<path class="st5" d="M321,149.4c-0.7,0-1.1-0.5-0.9-1.2c0.2-0.6,0.9-1.2,1.5-1.2c0.7,0,1.1,0.5,0.9,1.2
		C322.3,148.8,321.7,149.4,321,149.4z M321,145.8l2.8-10.9h2.2l-3.1,10.9H321z"/>
</g>
</svg>
