<?xml version="1.0" encoding="utf-8"?>
<!-- Generator: Adobe Illustrator 23.0.3, SVG Export Plug-In . SVG Version: 6.00 Build 0)  -->
<svg version="1.1" id="Calque_1" xmlns="http://www.w3.org/2000/svg" xmlns:xlink="http://www.w3.org/1999/xlink" x="0px" y="0px"
	 viewBox="0 0 224.3 224.3" style="enable-background:new 0 0 224.3 224.3;" xml:space="preserve">
<style type="text/css">
	.st0{fill:#51B262;}
	.st1{fill:#FFFFFF;}
</style>
<path class="st0" d="M112.2,10c56.3,0,102.2,45.8,102.2,102.2c0,56.3-45.8,102.2-102.2,102.2S10,168.5,10,112.2
	C10,55.8,55.8,10,112.2,10 M112.2,0C50.2,0,0,50.2,0,112.2s50.2,112.2,112.2,112.2s112.2-50.2,112.2-112.2S174.1,0,112.2,0L112.2,0z
	"/>
<path class="st1" d="M112.2,22c49.7,0,90.2,40.4,90.2,90.2s-40.5,90.2-90.2,90.2S22,161.9,22,112.2S62.4,22,112.2,22 M112.2,10
	C55.7,10,10,55.7,10,112.2s45.7,102.2,102.2,102.2s102.2-45.7,102.2-102.2S168.6,10,112.2,10L112.2,10z"/>
<circle class="st0" cx="112.2" cy="112.2" r="90.2"/>
<g>
	<path class="st1" d="M74.5,152.6c-17.7,0-32-14.3-32-32s14.3-32,32-32c9.2,0,18,4,24.1,10.9c1.1,1.2,0.9,3-0.2,4
		c-1.2,1.1-3,0.9-4-0.2c-5-5.7-12.2-9-19.8-9c-14.5,0-26.3,11.8-26.3,26.3s11.8,26.3,26.3,26.3c7.6,0,14.8-3.2,19.8-9
		c1.1-1.2,2.8-1.3,4-0.2c1.2,1.1,1.3,2.8,0.2,4C92.5,148.6,83.7,152.6,74.5,152.6z"/>
	<path class="st1" d="M155.5,152.6c-17.7,0-32-14.3-32-32c0-5.4,1.4-10.8,4-15.5c0.7-1.4,2.5-1.9,3.9-1.1c1.4,0.7,1.9,2.5,1.1,3.9
		c-2.2,3.9-3.3,8.3-3.3,12.7c0,14.5,11.8,26.3,26.3,26.3c8,0,15.6-3.6,20.6-9.9c1-1.2,2.8-1.4,4-0.4c1.2,1,1.5,2.8,0.4,4
		C174.4,148.2,165.2,152.6,155.5,152.6z"/>
	<path class="st1" d="M142.5,85H85c-1.8,0-3.2-1.5-3.2-3.2c0-1.8,1.5-3.2,3.2-3.2h57.5c1.8,0,3.2,1.5,3.2,3.2
		C145.8,83.5,144.3,85,142.5,85z"/>
	<path class="st1" d="M138.5,70.8h-17.8c-1.5,0-2.8-1.3-2.8-2.8s1.3-2.8,2.8-2.8h17.8c1.5,0,2.8,1.3,2.8,2.8S140,70.8,138.5,70.8z"
		/>
	<path class="st1" d="M156.3,125.9c-1.2,0-2.3-0.7-2.7-1.9l-17.8-55.1c-0.5-1.5,0.3-3.1,1.9-3.6c1.5-0.5,3.1,0.3,3.6,1.9l17.8,55.1
		c0.5,1.5-0.3,3.1-1.9,3.6C156.9,125.8,156.6,125.9,156.3,125.9z"/>
</g>
</svg>
