<svg height="512" viewBox="0 0 192 192" width="512" xmlns="http://www.w3.org/2000/svg"><g id="_13-food" data-name="13-food"><path d="m183.633 176a88.2 88.2 0 0 0 -66.139-77.34 24 24 0 1 0 -42.988 0 88.2 88.2 0 0 0 -66.139 77.34h-8.367v16h192v-16zm-95.633-88a8 8 0 1 1 8 8 8.009 8.009 0 0 1 -8-8zm-63.559 88a72.005 72.005 0 0 1 143.118 0z"/><circle cx="120" cy="136" r="8"/><path d="m141.478 59.7c-.418 1.81-4.666 4.564-8.008 5.713l5.06 15.178c1.606-.535 15.77-5.566 18.519-17.21 1.1-4.667.713-11.931-7.392-20.036-2.762-2.762-3.259-4.506-3.135-5.041.418-1.81 4.666-4.564 8.042-5.724l-2.564-7.58-2.53-7.589c-1.606.535-15.77 5.566-18.519 17.21-1.1 4.667-.713 11.931 7.392 20.036 2.757 2.762 3.257 4.506 3.135 5.043z"/><path d="m93.478 42.7c-.419 1.81-4.667 4.564-8.008 5.713l5.06 15.178c1.606-.535 15.77-5.566 18.519-17.21 1.1-4.667.713-11.931-7.392-20.036-2.757-2.764-3.257-4.508-3.135-5.045.418-1.81 4.666-4.564 8.042-5.724l-2.564-7.576-2.53-7.589c-1.606.535-15.77 5.566-18.518 17.21-1.1 4.667-.714 11.931 7.391 20.036 2.762 2.762 3.257 4.506 3.135 5.043z"/><path d="m45.478 59.7c-.419 1.81-4.667 4.564-8.008 5.713l5.06 15.178c1.606-.535 15.77-5.566 18.518-17.21 1.1-4.667.714-11.931-7.391-20.036-2.757-2.764-3.257-4.508-3.135-5.045.419-1.81 4.667-4.564 8.042-5.724l-2.564-7.576-2.53-7.589c-1.606.535-15.77 5.566-18.518 17.21-1.1 4.667-.714 11.931 7.391 20.036 2.762 2.762 3.257 4.506 3.135 5.043z"/></g></svg>