<?xml version="1.0" encoding="utf-8"?>
<!-- Generator: Adobe Illustrator 23.0.3, SVG Export Plug-In . SVG Version: 6.00 Build 0)  -->
<svg version="1.1" id="Calque_1" xmlns="http://www.w3.org/2000/svg" xmlns:xlink="http://www.w3.org/1999/xlink" x="0px" y="0px"
	 viewBox="0 0 224.3 224.3" style="enable-background:new 0 0 224.3 224.3;" xml:space="preserve">
<style type="text/css">
	.st0{fill:#E5B0D1;}
	.st1{fill:#FFFFFF;}
	.st2{fill:#FFFFFF;stroke:#E5B0D1;stroke-miterlimit:10;}
	.st3{fill:#F7CEB2;}
</style>
<circle class="st0" cx="112.2" cy="113.2" r="91.9"/>
<path class="st1" d="M85.5,134.9c-2.3,0-1.9,4.2-0.1,4l4.3,0.4c0,0,3.2,3.8,2.6,6.6s-2.4,9.5-1.3,13.8l-2.7,3.2l12.6,10.7l6.8-7.9
	c0,0,7.3-11.1,7-12c0,0,0-0.1,0-0.1c0,0,21.8-14.3,23.1-13.6c0,0,6.1-0.1,8,0c1.9,0.1,4.7-5.1,0-5.1c-4.7,0-12.5,0-12.5,0
	s-14.4,6.5-19.5,7.1c-5.1,0.6-13.2,2.1-12.9,2.6c0.3,0.5-2.6-8-7.1-9.7H85.5z"/>
<circle class="st1" cx="112.2" cy="76.9" r="5"/>
<path class="st2" d="M61.5,130.9c0-27.8,22.6-50.4,50.4-50.4s50.4,22.6,50.4,50.4"/>
<path class="st2" d="M170.6,134.9H53.1c-2.2,0-4-1.8-4-4s1.8-4,4-4h117.6c2.2,0,4,1.8,4,4S172.9,134.9,170.6,134.9z"/>
<g>
	<g>
		<path class="st0" d="M144.5,107.6c-5.3-6.7-12.2-12-20.1-15.5c-1-0.4-1.4-1.6-0.9-2.6v0c0.4-0.9,1.5-1.3,2.3-1
			c8.5,3.5,15.9,9.3,21.5,16.5c0.6,0.7,0.5,1.8-0.1,2.5l0,0C146.4,108.5,145.2,108.5,144.5,107.6z"/>
		<path class="st0" d="M145.8,108.5C145.8,108.5,145.8,108.5,145.8,108.5c-0.6,0-1.2-0.3-1.5-0.7l0,0c-5.4-6.7-12.3-12.1-20-15.4
			c-0.5-0.2-0.9-0.6-1.1-1.1c-0.2-0.5-0.2-1.2,0.1-1.7c0.5-1,1.6-1.5,2.6-1.1c8.4,3.5,15.9,9.2,21.6,16.6c0.6,0.8,0.6,2-0.1,2.8l0,0
			C147,108.2,146.4,108.5,145.8,108.5z M125.1,88.6c-0.6,0-1.2,0.4-1.5,1c-0.2,0.4-0.2,0.9-0.1,1.4c0.2,0.4,0.5,0.8,0.9,0.9
			c7.8,3.4,14.7,8.8,20.2,15.5l0,0c0.3,0.4,0.7,0.6,1.2,0.6c0.5,0,0.9-0.2,1.3-0.6l0,0c0.6-0.6,0.6-1.6,0.1-2.3
			c-5.7-7.3-13.1-13-21.5-16.5C125.5,88.7,125.3,88.6,125.1,88.6z"/>
	</g>
</g>
<g>
	<path class="st1" d="M125.2,55.3C125.2,55.3,125.2,55.3,125.2,55.3c-0.1-0.1-0.1-0.1-0.1-0.1C125.2,55.2,125.2,55.3,125.2,55.3z"/>
	<path class="st1" d="M131.5,61.5c0,3.3-1.2,6.4-3.5,8.8c-0.4,0.4-0.9,0.6-1.4,0.6c-0.5,0-0.9-0.2-1.3-0.5c-0.8-0.7-0.8-1.9-0.1-2.7
		c1.6-1.7,2.4-3.9,2.4-6.1c0-2.3-0.9-4.5-2.4-6.2c0,0,0,0,0,0c0,0-0.1-0.1-0.1-0.1l0,0c-1.9-2.3-2.9-5.2-2.9-8.1c0-3,1-5.9,2.9-8.2
		c0.7-0.8,1.9-0.9,2.7-0.3c0.8,0.7,0.9,1.9,0.3,2.7c-1.3,1.6-2.1,3.6-2.1,5.7c0,2.1,0.7,4.1,2,5.7c0,0,0,0,0,0
		C130.3,55.2,131.5,58.2,131.5,61.5z"/>
</g>
<g>
	<path class="st1" d="M109.7,48.3C109.6,48.3,109.6,48.2,109.7,48.3c-0.1-0.1-0.1-0.1-0.1-0.1C109.6,48.2,109.6,48.2,109.7,48.3z"/>
	<path class="st1" d="M116,54.5c0,3.3-1.2,6.4-3.5,8.8c-0.4,0.4-0.9,0.6-1.4,0.6c-0.5,0-0.9-0.2-1.3-0.5c-0.8-0.7-0.8-1.9-0.1-2.7
		c1.6-1.7,2.4-3.9,2.4-6.1c0-2.3-0.9-4.5-2.4-6.2c0,0,0,0,0,0c0,0-0.1-0.1-0.1-0.1l0,0c-1.9-2.3-2.9-5.2-2.9-8.1c0-3,1-5.9,2.9-8.2
		c0.7-0.8,1.9-0.9,2.7-0.3c0.8,0.7,0.9,1.9,0.3,2.7c-1.3,1.6-2.1,3.6-2.1,5.7c0,2.1,0.7,4.1,2,5.7c0,0,0,0,0,0
		C114.8,48.1,116,51.2,116,54.5z"/>
</g>
<g>
	<path class="st1" d="M94.9,55.3C94.9,55.3,94.9,55.3,94.9,55.3c-0.1-0.1-0.1-0.1-0.1-0.1C94.9,55.2,94.9,55.3,94.9,55.3z"/>
	<path class="st1" d="M101.2,61.5c0,3.3-1.2,6.4-3.5,8.8c-0.4,0.4-0.9,0.6-1.4,0.6c-0.5,0-0.9-0.2-1.3-0.5c-0.8-0.7-0.8-1.9-0.1-2.7
		c1.6-1.7,2.4-3.9,2.4-6.1c0-2.3-0.9-4.5-2.4-6.2c0,0,0,0,0,0c0,0-0.1-0.1-0.1-0.1l0,0c-1.9-2.3-2.9-5.2-2.9-8.1c0-3,1-5.9,2.9-8.2
		c0.7-0.8,1.9-0.9,2.7-0.3c0.8,0.7,0.9,1.9,0.3,2.7c-1.3,1.6-2.1,3.6-2.1,5.7c0,2.1,0.7,4.1,2,5.7c0,0,0,0,0,0
		C100,55.2,101.2,58.2,101.2,61.5z"/>
</g>
<path class="st3" d="M112.2,10c56.3,0,102.2,45.8,102.2,102.2c0,56.3-45.8,102.2-102.2,102.2S10,168.5,10,112.2
	C10,55.8,55.8,10,112.2,10 M112.2,0C50.2,0,0,50.2,0,112.2s50.2,112.2,112.2,112.2s112.2-50.2,112.2-112.2S174.1,0,112.2,0L112.2,0z
	"/>
</svg>
