<?xml version="1.0" encoding="utf-8"?>
<!-- Generator: Adobe Illustrator 23.0.3, SVG Export Plug-In . SVG Version: 6.00 Build 0)  -->
<svg version="1.1" id="Calque_1" xmlns="http://www.w3.org/2000/svg" xmlns:xlink="http://www.w3.org/1999/xlink" x="0px" y="0px"
	 viewBox="0 0 224.3 224.3" style="enable-background:new 0 0 224.3 224.3;" xml:space="preserve">
<style type="text/css">
	.st0{fill:#C03A8D;}
	.st1{fill:#FFFFFF;}
</style>
<path class="st0" d="M112.2,10c56.3,0,102.2,45.8,102.2,102.2c0,56.3-45.8,102.2-102.2,102.2S10,168.5,10,112.2
	C10,55.8,55.8,10,112.2,10 M112.2,0C50.2,0,0,50.2,0,112.2s50.2,112.2,112.2,112.2s112.2-50.2,112.2-112.2S174.1,0,112.2,0L112.2,0z
	"/>
<path class="st1" d="M112.2,22c49.7,0,90.2,40.4,90.2,90.2s-40.5,90.2-90.2,90.2S22,161.9,22,112.2S62.4,22,112.2,22 M112.2,10
	C55.7,10,10,55.7,10,112.2s45.7,102.2,102.2,102.2s102.2-45.7,102.2-102.2S168.6,10,112.2,10L112.2,10z"/>
<circle class="st0" cx="112.2" cy="112.2" r="90.2"/>
<g>
	<path class="st1" d="M117.5,68.2c0,11.5-5.2,21.7-13.3,28.5c-2.9-5.3-4.5-11.3-4.5-17.7c0-11.5,5.2-21.7,13.3-28.5
		C115.9,55.8,117.5,61.8,117.5,68.2z"/>
	<path class="st1" d="M161.5,77.5c-8.5,15.5-25,26-44,26c-4,0-7.9-0.5-11.6-1.3c8.5-15.5,25-26,44-26
		C153.9,76.2,157.8,76.6,161.5,77.5z"/>
	<path class="st1" d="M101.6,102.8c-1.6,0.5-3.3,0.7-5.1,0.7c-10.3,0-18.7-8.2-19-18.4c1.6-0.5,3.3-0.7,5.1-0.7
		C92.8,84.4,101.2,92.6,101.6,102.8z"/>
</g>
<g>
	<path class="st1" d="M70.6,144.9H37.7V94.4h7.5v44.3h25.5V144.9z"/>
	<path class="st1" d="M108.6,128c0,9.9-7.7,17.2-17.3,17.2c-9.6,0-17.3-7.3-17.3-17.2c0-9.9,7.7-17.3,17.3-17.3
		C100.9,110.7,108.6,118.1,108.6,128z M81,128c0,7.4,4.6,11.6,10.4,11.6s10.4-4.2,10.4-11.6c0-7.5-4.6-11.7-10.4-11.7
		S81,120.6,81,128z"/>
	<path class="st1" d="M129.3,145.3c-9.6,0-17.3-7.3-17.3-17.2c0-9.9,7.7-17.3,17.3-17.3c5.1,0,9.6,2.2,12.7,5.7l-4.8,4.3
		c-2-2.6-4.8-4.4-7.9-4.4c-5.7,0-10.4,4.9-10.4,11.7c0,6.7,4.6,11.6,10.4,11.6c3.2,0,6-1.7,7.9-4.4l4.8,4.3
		C138.9,143.1,134.4,145.3,129.3,145.3z"/>
	<path class="st1" d="M174.4,124.1v20.8h-6.9v-3.6c-2.4,3.3-6.7,4-10.1,4c-6.3,0-11.2-3.5-11.2-10.1c0-7.6,6.2-11.2,15.3-11.2h6.1
		c0-4-1.4-7.5-5.8-7.5c-3.2,0-5.3,1.1-8.2,3.4l-4.4-3.3c3.5-3.6,8.4-5.8,13.1-5.8C170.2,110.7,174.4,114.9,174.4,124.1z
		 M167.4,130.1h-5.1c-6.9,0-9.3,1.6-9.3,4.7c0,3.4,2.8,4.8,5.9,4.8c6.5,0,8.5-2.8,8.5-6.4V130.1z"/>
	<path class="st1" d="M180.4,144.9V92.4h6.9v52.5H180.4z"/>
</g>
</svg>
