<?xml version="1.0" encoding="utf-8"?>
<!-- Generator: Adobe Illustrator 23.0.3, SVG Export Plug-In . SVG Version: 6.00 Build 0)  -->
<svg version="1.1" id="Calque_1" xmlns="http://www.w3.org/2000/svg" xmlns:xlink="http://www.w3.org/1999/xlink" x="0px" y="0px"
	 viewBox="0 0 252 252" style="enable-background:new 0 0 252 252;" xml:space="preserve">
<style type="text/css">
	.st0{fill:none;}
	.st1{fill:#51B262;}
	.st2{fill:#FFFFFF;}
</style>
<g>
	<path class="st0" d="M208,44c-21.9-21.9-51-34-82-34S65.9,22.1,44,44s-34,51-34,82s12.1,60.1,34,82s51,34,82,34s60.1-12.1,82-34
		s34-51,34-82S229.9,65.9,208,44z M126,230c-57.4,0-104-46.6-104-104S68.6,22,126,22s104,46.6,104,104S183.4,230,126,230z"/>
	<circle class="st1" cx="126" cy="126" r="104"/>
	<path class="st1" d="M126,0C56.4,0,0,56.4,0,126s56.4,126,126,126s126-56.4,126-126S195.6,0,126,0z M208,208
		c-21.9,21.9-51,34-82,34s-60.1-12.1-82-34s-34-51-34-82s12.1-60.1,34-82s51-34,82-34s60.1,12.1,82,34s34,51,34,82
		S229.9,186.1,208,208z"/>
</g>
<g>
	<path class="st2" d="M78,176.5c-21.8,0-39.5-17.7-39.5-39.5S56.2,97.5,78,97.5c11.4,0,22.2,4.9,29.7,13.4c1.3,1.5,1.1,3.7-0.3,4.9
		c-1.5,1.3-3.7,1.1-4.9-0.3c-6.2-7-15.1-11.1-24.4-11.1c-17.9,0-32.5,14.6-32.5,32.5s14.6,32.5,32.5,32.5c9.4,0,18.3-4,24.4-11.1
		c1.3-1.5,3.5-1.6,4.9-0.3c1.5,1.3,1.6,3.5,0.3,4.9C100.2,171.6,89.4,176.5,78,176.5z"/>
	<path class="st2" d="M178,176.5c-21.8,0-39.5-17.7-39.5-39.5c0-6.7,1.7-13.3,4.9-19.1c0.9-1.7,3.1-2.3,4.8-1.4s2.3,3.1,1.4,4.8
		c-2.7,4.8-4.1,10.2-4.1,15.7c0,17.9,14.6,32.5,32.5,32.5c9.9,0,19.2-4.4,25.4-12.2c1.2-1.5,3.4-1.7,4.9-0.5s1.8,3.4,0.5,4.9
		C201.3,171.1,190,176.5,178,176.5z"/>
	<path class="st2" d="M162,93H91c-2.2,0-4-1.8-4-4s1.8-4,4-4h71c2.2,0,4,1.8,4,4S164.2,93,162,93z"/>
	<path class="st2" d="M157,75.5h-22c-1.9,0-3.5-1.6-3.5-3.5s1.6-3.5,3.5-3.5h22c1.9,0,3.5,1.6,3.5,3.5S158.9,75.5,157,75.5z"/>
	<path class="st2" d="M179,143.5c-1.5,0-2.8-0.9-3.3-2.4l-22-68c-0.6-1.8,0.4-3.8,2.3-4.4c1.8-0.6,3.8,0.4,4.4,2.3l22,68
		c0.6,1.8-0.4,3.8-2.3,4.4C179.7,143.4,179.4,143.5,179,143.5z"/>
</g>
<path class="st2" d="M126,22c57.3,0,104,46.7,104,104s-46.7,104-104,104S22,183.3,22,126S68.7,22,126,22 M126,10
	C61.9,10,10,61.9,10,126s51.9,116,116,116s116-51.9,116-116S190.1,10,126,10L126,10z"/>
</svg>
