<svg version="1.1" id="Calque_1" xmlns="http://www.w3.org/2000/svg" x="0" y="0" viewBox="0 0 512 512" xml:space="preserve"><style>.st0{fill:#c03a8d}</style><g id="_13-food"><path class="st0" d="M489.7 469.3c-9.2-99.2-79.8-181.8-176.4-206.2 15.7-31.7 2.8-70.1-28.8-85.8s-70.1-2.8-85.8 28.8c-8.9 17.9-8.9 39 0 56.9-96.5 24.6-167.2 107.2-176.4 206.3H0V512h512v-42.7h-22.3zm-255-234.6c0-11.8 9.6-21.3 21.3-21.3s21.3 9.6 21.3 21.3S267.8 256 256 256s-21.3-9.6-21.3-21.3zM65.2 469.3C77 363.9 171.9 288.1 277.3 299.8c89.1 10 159.5 80.3 169.5 169.5H65.2z"/><circle class="st0" cx="320" cy="362.7" r="21.3"/><path class="st0" d="M377.3 159.2c-1.1 4.8-12.4 12.2-21.4 15.2l13.5 40.5c4.3-1.4 42.1-14.8 49.4-45.9 2.9-12.4 1.9-31.8-19.7-53.4-7.4-7.4-8.7-12-8.4-13.4 1.1-4.8 12.4-12.2 21.4-15.3l-6.8-20.2-6.7-20.2c-4.3 1.4-42.1 14.8-49.4 45.9-2.9 12.4-1.9 31.8 19.7 53.4 7.4 7.3 8.7 12 8.4 13.4zm-128-45.3c-1.1 4.8-12.4 12.2-21.4 15.2l13.5 40.5c4.3-1.4 42.1-14.8 49.4-45.9 2.9-12.4 1.9-31.8-19.7-53.4-7.4-7.4-8.7-12-8.4-13.5 1.1-4.8 12.4-12.2 21.4-15.3l-6.8-20.2-6.7-20.2c-4.3 1.4-42.1 14.8-49.4 45.9-2.9 12.4-1.9 31.8 19.7 53.4 7.4 7.4 8.7 12 8.4 13.5zm-128 45.3c-1.1 4.8-12.4 12.2-21.4 15.2l13.5 40.5c4.3-1.4 42.1-14.8 49.4-45.9 2.9-12.4 1.9-31.8-19.7-53.4-7.4-7.4-8.7-12-8.4-13.5 1.1-4.8 12.4-12.2 21.4-15.3l-6.8-20.2-6.7-20.2c-4.3 1.4-42.1 14.8-49.4 45.9-2.9 12.4-1.9 31.8 19.7 53.4 7.4 7.4 8.7 12.1 8.4 13.5z"/></g></svg>