<svg version="1.1" id="Calque_1" xmlns="http://www.w3.org/2000/svg" x="0" y="0" viewBox="0 0 252 226" xml:space="preserve"><style>.st0{fill:#ec863e}</style><path class="st0" d="M118.6 155.2c-8 0-16.2-.7-24.6-2.4-5-1-8.5-5.7-8-10.8v-.1c.5-5.5 5.4-9.5 10.9-9 .8.1 1.6.2 2.3.5 26 4.8 51.2-1.4 73.5-6.9 6.4-1.6 12.5-3.1 18.3-4.3 32.1-27.5 46.4-53.1 39.1-70.4-6.5-15.5-31-25.2-56.9-22.5-12.1 1.2-23.2 5.1-31.1 11-.1.1-.3.2-.4.3-.1.1-.3.2-.4.3-3.2 1.9-6.3 4.1-9.2 6.4-9.7 7.9-17.1 18-22.2 30.2-.9 4.8-5.3 8.3-10.3 8.1-5.5-.3-9.7-5-9.5-10.5v-.6c.1-1.1.3-2.2.7-3.2 6.4-15.9 16-29.1 28.6-39.4 3.5-2.9 7.3-5.5 11.2-7.9 10.9-7.9 25-13 40.6-14.5 15.7-1.6 31.9.5 45.4 5.9 15.6 6.2 26.6 16.1 31.9 28.8 8 18.8 6.3 50.7-46.6 95.1-1.3 1.1-2.9 1.9-4.6 2.2-6.1 1.1-12.8 2.8-19.8 4.5-17.1 4.2-37.3 9.2-58.9 9.2z"/><path class="st0" d="M195 226H58c-5.5 0-10-4.5-10-10v-72.2C.9 115.2-1.4 78.1-.1 63.2 2.2 36 20 12.7 45.2 3.9 74-6.2 106 4.3 132.9 32.7c1.9 2 2.9 4.7 2.7 7.5s-1.5 5.4-3.7 7.1c-9.6 7.9-17.1 18-22.2 30.2-.9 4.8-5.3 8.3-10.3 8.1-5.5-.3-9.7-5-9.5-10.5v-.6c.1-1.1.3-2.2.7-3.2 4.9-12.2 11.8-22.9 20.4-31.9-19.3-17.1-40.5-23.2-59.2-16.6C34 29 21.4 45.5 19.8 64.9c-2.1 24.5 13.6 48 43.1 64.4C66 131 68 134.4 68 138v68h117v-61.9c-2.4.6-4.9 1.2-7.4 1.8-23.5 5.8-52.7 13.1-83.5 6.9-5-1-8.5-5.7-8-10.8v-.1c.5-5.5 5.4-9.5 10.9-9 .8.1 1.6.2 2.3.5 26 4.8 51.2-1.4 73.5-6.9 7.4-1.8 14.3-3.5 20.9-4.8 4.5-.8 8.9 1.4 10.9 5.6 1.1 2.4 1.2 5.1.4 7.5V216c0 5.5-4.5 10-10 10z"/></svg>