<svg version="1.1" id="Calque_1" xmlns="http://www.w3.org/2000/svg" x="0" y="0" viewBox="0 0 224.3 224.3" xml:space="preserve"><style>.st0{fill:#bf3a8c}.st1,.st2{fill:#fff}.st2{stroke:#bf3a8c;stroke-miterlimit:10}</style><circle class="st0" cx="112.2" cy="113.2" r="91.9"/><path class="st1" d="M85.5 134.9c-2.3 0-1.9 4.2-.1 4l4.3.4s3.2 3.8 2.6 6.6-2.4 9.5-1.3 13.8l-2.7 3.2 12.6 10.7 6.8-7.9s7.3-11.1 7-12v-.1s21.8-14.3 23.1-13.6c0 0 6.1-.1 8 0 1.9.1 4.7-5.1 0-5.1h-12.5s-14.4 6.5-19.5 7.1c-5.1.6-13.2 2.1-12.9 2.6.3.5-2.6-8-7.1-9.7h-8.3z"/><circle class="st1" cx="112.2" cy="76.9" r="5"/><path class="st2" d="M61.5 130.9c0-27.8 22.6-50.4 50.4-50.4s50.4 22.6 50.4 50.4"/><path class="st2" d="M170.6 134.9H53.1c-2.2 0-4-1.8-4-4s1.8-4 4-4h117.6c2.2 0 4 1.8 4 4s-1.8 4-4.1 4z"/><path class="st0" d="M144.5 107.6c-5.3-6.7-12.2-12-20.1-15.5-1-.4-1.4-1.6-.9-2.6.4-.9 1.5-1.3 2.3-1 8.5 3.5 15.9 9.3 21.5 16.5.6.7.5 1.8-.1 2.5-.8 1-2 1-2.7.1z"/><path class="st0" d="M145.8 108.5c-.6 0-1.2-.3-1.5-.7-5.4-6.7-12.3-12.1-20-15.4-.5-.2-.9-.6-1.1-1.1-.2-.5-.2-1.2.1-1.7.5-1 1.6-1.5 2.6-1.1 8.4 3.5 15.9 9.2 21.6 16.6.6.8.6 2-.1 2.8-.4.3-1 .6-1.6.6zm-20.7-19.9c-.6 0-1.2.4-1.5 1-.2.4-.2.9-.1 1.4.2.4.5.8.9.9 7.8 3.4 14.7 8.8 20.2 15.5.3.4.7.6 1.2.6s.9-.2 1.3-.6c.6-.6.6-1.6.1-2.3-5.7-7.3-13.1-13-21.5-16.5-.2.1-.4 0-.6 0z"/><path class="st1" d="M125.2 55.3l-.1-.1c.1 0 .1.1.1.1z"/><path class="st1" d="M131.5 61.5c0 3.3-1.2 6.4-3.5 8.8-.4.4-.9.6-1.4.6-.5 0-.9-.2-1.3-.5-.8-.7-.8-1.9-.1-2.7 1.6-1.7 2.4-3.9 2.4-6.1 0-2.3-.9-4.5-2.4-6.2l-.1-.1c-1.9-2.3-2.9-5.2-2.9-8.1 0-3 1-5.9 2.9-8.2.7-.8 1.9-.9 2.7-.3.8.7.9 1.9.3 2.7-1.3 1.6-2.1 3.6-2.1 5.7s.7 4.1 2 5.7c2.3 2.4 3.5 5.4 3.5 8.7zm-21.8-13.2c-.1 0-.1-.1 0 0l-.1-.1.1.1z"/><path class="st1" d="M116 54.5c0 3.3-1.2 6.4-3.5 8.8-.4.4-.9.6-1.4.6-.5 0-.9-.2-1.3-.5-.8-.7-.8-1.9-.1-2.7 1.6-1.7 2.4-3.9 2.4-6.1 0-2.3-.9-4.5-2.4-6.2l-.1-.1c-1.9-2.3-2.9-5.2-2.9-8.1 0-3 1-5.9 2.9-8.2.7-.8 1.9-.9 2.7-.3.8.7.9 1.9.3 2.7-1.3 1.6-2.1 3.6-2.1 5.7s.7 4.1 2 5.7c2.3 2.3 3.5 5.4 3.5 8.7zm-21.1.8l-.1-.1c.1 0 .1.1.1.1z"/><path class="st1" d="M101.2 61.5c0 3.3-1.2 6.4-3.5 8.8-.4.4-.9.6-1.4.6-.5 0-.9-.2-1.3-.5-.8-.7-.8-1.9-.1-2.7 1.6-1.7 2.4-3.9 2.4-6.1 0-2.3-.9-4.5-2.4-6.2l-.1-.1c-1.9-2.3-2.9-5.2-2.9-8.1 0-3 1-5.9 2.9-8.2.7-.8 1.9-.9 2.7-.3.8.7.9 1.9.3 2.7-1.3 1.6-2.1 3.6-2.1 5.7s.7 4.1 2 5.7c2.3 2.4 3.5 5.4 3.5 8.7z"/><path d="M112.2 10c56.3 0 102.2 45.8 102.2 102.2 0 56.3-45.8 102.2-102.2 102.2S10 168.5 10 112.2C10 55.8 55.8 10 112.2 10m0-10C50.2 0 0 50.2 0 112.2s50.2 112.2 112.2 112.2 112.2-50.2 112.2-112.2S174.1 0 112.2 0z" fill="#ec853e"/></svg>