<svg version="1.1" id="Calque_1" xmlns="http://www.w3.org/2000/svg" x="0" y="0" viewBox="0 0 553.7 192.6" xml:space="preserve"><style>.st0{fill:#ec853e}.st1{fill:#bf3a8c}.st3,.st4{fill:#fff}.st4{stroke:#bf3a8c;stroke-miterlimit:10}</style><path class="st0" d="M520.1 192.4l-6.5-6.6c19.9-19.5 30.9-45.7 30.9-73.5 0-27.5-10.7-53.4-30.1-72.8C494.9 20 469.1 9.2 441.6 9.2S388.2 20 368.8 39.4c-19.4 19.5-30.1 45.3-30.1 72.8 0 27.4 10.6 53.1 29.9 72.6l-6.6 6.5c-21-21.2-32.6-49.2-32.6-79.1 0-30 11.7-58.2 32.9-79.4C383.4 11.7 411.6 0 441.6 0s58.1 11.7 79.3 32.9c21.2 21.2 32.9 49.4 32.9 79.4 0 15.3-3 30.2-9 44.2-5.9 13.4-14.2 25.5-24.7 35.9z"/><path class="st1" d="M493.7 188.7c24-16.6 39.8-44.3 39.8-75.7 0-50.8-41.1-91.9-91.9-91.9s-91.9 41.1-91.9 91.9c0 31.2 15.6 58.8 39.4 75.5"/><path class="st0" d="M441.6 9.2H249.2c-2.6 0-4.6-2.1-4.6-4.6s2.1-4.6 4.6-4.6h192.4c2.6 0 4.6 2.1 4.6 4.6s-2.1 4.6-4.6 4.6zm-62.8 19.6H222c-2.6 0-4.6-2.1-4.6-4.6s2.1-4.6 4.6-4.6h156.9c2.6 0 4.6 2.1 4.6 4.6s-2.1 4.6-4.7 4.6zm-33.4 141.9h-312c-2.6 0-4.6-2.1-4.6-4.6s2.1-4.6 4.6-4.6h312c2.6 0 4.6 2.1 4.6 4.6s-2.1 4.6-4.6 4.6z"/><path class="st3" d="M414.8 134.7c-2.3 0-1.9 4.2-.1 4l4.3.4s3.2 3.8 2.6 6.6c-.6 2.8-2.4 9.5-1.3 13.8l-2.7 3.2 12.6 10.7 6.8-7.9s7.3-11.1 7-12v-.1s21.8-14.3 23.1-13.6c0 0 6.1-.1 8 0 1.9.1 4.7-5.1 0-5.1h-12.5s-14.4 6.5-19.5 7.1-13.2 2.1-12.9 2.6c.3.5-2.6-8-7.1-9.7h-8.3z"/><circle class="st3" cx="441.6" cy="76.7" r="5"/><path class="st4" d="M390.9 130.7c0-27.8 22.6-50.4 50.4-50.4 27.8 0 50.4 22.6 50.4 50.4"/><path class="st4" d="M500 134.7H382.5c-2.2 0-4-1.8-4-4s1.8-4 4-4H500c2.2 0 4 1.8 4 4 .1 2.2-1.7 4-4 4z"/><path class="st1" d="M473.9 107.4c-5.3-6.7-12.2-12-20.1-15.5-1-.4-1.4-1.6-.9-2.6.4-.9 1.5-1.3 2.3-1 8.5 3.5 15.9 9.3 21.5 16.5.6.7.5 1.8-.1 2.5-.8 1-2 1-2.7.1z"/><path class="st1" d="M475.2 108.3c-.6 0-1.2-.3-1.5-.7-5.4-6.7-12.3-12.1-20-15.4-.5-.2-.9-.6-1.1-1.1-.2-.5-.2-1.2.1-1.7.5-1 1.6-1.5 2.6-1.1 8.4 3.5 15.9 9.2 21.6 16.6.6.8.6 2-.1 2.8-.5.3-1 .6-1.6.6zm-20.7-19.8c-.6 0-1.2.4-1.5 1-.2.4-.2.9-.1 1.4.2.4.5.8.9.9 7.8 3.4 14.7 8.8 20.2 15.5.3.4.7.6 1.2.6s.9-.2 1.3-.6c.6-.6.6-1.6.1-2.3-5.7-7.3-13.1-13-21.5-16.5h-.6zm-311.1 15.3c0-5.2 3.7-11.3 11.4-15.1-2.1-2.3-3.7-5.9-3.7-10.2 0-9.3 8.4-19.2 18.5-19.2 6.8 0 9.8 3.2 9.8 8.7 0 7.2-4.5 10.7-8.6 10.7-1.6 0-2.3-.6-2.6-1.3 1-2 1.5-3.9 1.5-5.9 0-2.8-1-3.7-2.1-3.7-2.6 0-5.6 5.2-5.6 10.8 0 2.6.6 5.4 1.3 7.3 1.6-.4 4-.6 5.4-.6 2.8 0 3.5.8 3.5 1.8 0 4.2-3.4 8.3-7 8.3-1.4 0-3.4-.8-4.9-2-2 2-3.3 5.2-3.3 7.2 0 3.7 2 6 6.3 6 6.9 0 16-6.6 20.3-13 1.5 0 2.8.6 2.8 2.3 0 4.7-12.8 20.4-28.2 20.4-9.1.3-14.8-4.9-14.8-12.5z"/><path class="st1" d="M187.6 112.6c-4.2 0-7.2-3.4-7.2-10.1 0-11 9.1-22.5 16.4-22.5 1 0 1.5.1 1.9.5l.2-4.2c.6-.7 1.5-1 2.6-1 5 0 7.7 3.4 7.7 5.9 0 1-.2 2.8-.8 4.8-2.6 9.2-3.5 13.8-3.5 15.7 0 1.5.3 1.7.9 1.7 1.5 0 5.3-2.8 9.9-9.4 1.5 0 2.7 1 2.7 2.3 0 4.8-12.1 16.5-17.4 16.5-3.2 0-5.3-1.3-5.3-6 0-.8.1-1.8.2-2.9-2.4 6.9-5.7 8.7-8.3 8.7zm10.7-27.3c-3.7 2.3-7.2 8.4-7.2 14 0 2.7.9 3 1.9 3 1 0 2-.7 2.9-1.8l2.4-15.2z"/><path class="st1" d="M217 88.3c-1.5-.1-2.7-.3-2.7-1.9 0-2.3 1.6-4.3 4.6-4.4.1-1.5.1-2.7.4-5.4.7-6.4 4.6-11 9.6-11 3.4 0 4.9 1.2 4.9 4.3 0 2.3-.9 4-4.8 11.8 2.3-.1 5.3-.3 6.3-.5.9.7 1.4 2 1.4 3.1 0 2.8-1.8 4.9-4.2 4.9-1.7 0-3.2-.1-5.3-.4-2 8-2.6 12.1-2.6 13.2 0 1.8.4 2.6 2 2.6 3 0 8-3.5 13-10.5 1.4 0 2.9 1 2.9 2.5 0 4.3-11.2 17.4-19.6 17.4-5.6 0-9.4-2.9-9.4-9.7 0-2.2.7-6.7 3.5-16zm47.8 17.8c0-4.7 7.1-9.4 12.4-9.4 3.5 0 4.5 1.4 4.5 4.1 0 5.6-3.9 13-9.1 13-4.2 0-7.8-3.9-7.8-7.7zm14.7-14.9c-4 0-6.4-4.4-6.4-8.9 0-4.2 1.2-14.1 3.5-22.7-.8-1.8-1.2-4-1.2-6 0-5 6.9-10.9 14.1-10.9 4 0 5.4 1.5 5.4 4.5 0 2.5-1.5 7.5-5 13.8-3.1 9-5.5 17.9-7.9 29.5-.5.4-1.5.7-2.5.7zm16.2-2.9c-1.5-.1-2.7-.3-2.7-1.9 0-2.3 1.6-4.3 4.6-4.4.1-1.5.1-2.7.4-5.4.7-6.4 4.6-11 9.6-11 3.4 0 4.9 1.2 4.9 4.3 0 2.3-.9 4-4.8 11.8 2.3-.1 5.3-.3 6.3-.5.9.7 1.4 2 1.4 3.1 0 2.8-1.8 4.9-4.2 4.9-1.7 0-3.2-.1-5.3-.4-2 8-2.6 12.1-2.6 13.2 0 1.8.4 2.6 2 2.6 3 0 8-3.5 13-10.5 1.4 0 2.9 1 2.9 2.5 0 4.3-11.2 17.4-19.6 17.4-5.6 0-9.4-2.9-9.4-9.7 0-2.2.7-6.7 3.5-16z"/><path class="st0" d="M518.1 192.6H4.6C2 192.6 0 190.5 0 188c0-2.6 2.1-4.6 4.6-4.6h513.5c2.6 0 4.6 2.1 4.6 4.6 0 2.5-2 4.6-4.6 4.6z"/><path class="st3" d="M454.6 55.1l-.1-.1.1.1zm6.3 6.2c0 3.3-1.2 6.4-3.5 8.8-.4.4-.9.6-1.4.6-.5 0-.9-.2-1.3-.5-.8-.7-.8-1.9-.1-2.7 1.6-1.7 2.4-3.9 2.4-6.1 0-2.3-.9-4.5-2.4-6.2l-.1-.1c-1.9-2.3-2.9-5.2-2.9-8.1 0-3 1-5.9 2.9-8.2.7-.8 1.9-.9 2.7-.3.8.7.9 1.9.3 2.7-1.3 1.6-2.1 3.6-2.1 5.7s.7 4.1 2 5.7c2.3 2.4 3.5 5.5 3.5 8.7zm-21.8-13.2c-.1 0-.1 0 0 0l-.1-.1s0 .1.1.1z"/><path class="st3" d="M445.4 54.3c0 3.3-1.2 6.4-3.5 8.8-.4.4-.9.6-1.4.6-.5 0-.9-.2-1.3-.5-.8-.7-.8-1.9-.1-2.7 1.6-1.7 2.4-3.9 2.4-6.1 0-2.3-.9-4.5-2.4-6.2l-.1-.1c-1.9-2.3-2.9-5.2-2.9-8.1 0-3 1-5.9 2.9-8.2.7-.8 1.9-.9 2.7-.3.8.7.9 1.9.3 2.7-1.3 1.6-2.1 3.6-2.1 5.7s.7 4.1 2 5.7c2.3 2.4 3.5 5.5 3.5 8.7zm-21.1.8l-.1-.1c0 .1.1.1.1.1z"/><path class="st3" d="M430.6 61.3c0 3.3-1.2 6.4-3.5 8.8-.4.4-.9.6-1.4.6-.5 0-.9-.2-1.3-.5-.8-.7-.8-1.9-.1-2.7 1.6-1.7 2.4-3.9 2.4-6.1 0-2.3-.9-4.5-2.4-6.2l-.1-.1c-1.9-2.3-2.9-5.2-2.9-8.1 0-3 1-5.9 2.9-8.2.7-.8 1.9-.9 2.7-.3.8.7.9 1.9.3 2.7-1.3 1.6-2.1 3.6-2.1 5.7s.7 4.1 2 5.7c2.3 2.4 3.5 5.5 3.5 8.7z"/><path d="M63.7 144.9l1.8 4.4h-2l-1.7-4.1h-3.5l-1.1 4.1h-1.8l3.7-13.9h5.3c2.7 0 4.3 2.1 3.5 4.9-.4 2.1-1.8 3.8-4.2 4.6zm-1.4-1.2c1.6 0 3.4-1.4 4-3.4.5-2-.6-3.4-2.1-3.4h-3.6l-1.8 6.9h3.5zm14.1 5.6H67l3.7-13.9h9.1l-.4 1.4H72l-1.2 4.5h6l-.4 1.5h-6l-1.3 5h7.7l-.4 1.5zm13.8 0h-1.8l.6-2.4c-1.7 2-3.7 2.5-5.5 2.5-3.9 0-5.9-3-4.8-7 1.1-4 4.3-7 8.4-7 2 0 3.6.7 4.5 2l-1.5 1.2c-.6-.9-1.7-1.7-3.4-1.7-2.9 0-5.3 2.1-6.3 5.6-.8 2.9.4 5.5 3.5 5.5 2.9 0 5.3-2 6.1-4.8h-3.7l.4-1.5h5.4l-1.9 7.6zm10.9-3.4h-6l-2.2 3.3H91l9.5-13.9h.9l2.1 13.9h-1.9l-.5-3.3zm-.2-1.4l-.8-6.2-4 6.2h4.8zm12.8 4.8h-9.1l3.7-13.9h1.8l-3.3 12.4h7.4l-.5 1.5zm10.6 0h-9.4l3.7-13.9h9.1l-.4 1.4H120l-1.2 4.5h6l-.4 1.5h-6l-1.3 5h7.7l-.5 1.5zm3.2-1.5h8.2l-.4 1.4h-9.9l.5-2 11-10.5h-8.2l.4-1.4h9.9l-.5 2-11 10.5zm9.2-2.7l.4-1.3h6.5l-.4 1.3h-6.5zm11.3-9.7h1.9l2.3 10.9 8.1-10.9h1.9l-10.4 13.9h-.8l-3-13.9zm26.1 7c-1.1 4-4.7 7-8.9 7-3.8 0-6.2-3-5.1-7 1.1-4 4.7-7 8.9-7 3.8-.1 6.1 3 5.1 7zm-12.2 0c-.8 2.9.7 5.6 3.7 5.6 3.1 0 6-2.7 6.7-5.6.8-2.9-.7-5.6-3.8-5.6-3 0-5.9 2.7-6.6 5.6zm24.2 1.4c-.6 2.2-2.4 5.6-7 5.6s-4.6-3.4-4-5.6l2.3-8.3h1.7l-2.2 8.3c-.2.9-.9 4.1 2.7 4.1s4.6-3.3 4.8-4.1l2.2-8.3h1.8l-2.3 8.3zm10.2 2.7c-.6 1.8-2.2 2.8-4.6 2.9-2.4 0-4.4-1.3-5.2-2.6l1.5-1.2c.5 1.1 1.5 2.3 3.7 2.3 1.8 0 2.7-.5 3.1-1.7.4-1.2-.5-2.1-2.6-3-1.7-.8-3.6-1.9-2.9-4.6.4-1.5 2-3.1 4.7-3.1 2.2 0 3.4.8 4.8 2.3l-1.5 1.1c-.7-1.1-1.7-1.9-3.3-1.9-1.5 0-2.8.9-3.1 2.1-.5 1.9 1.6 2.5 2.8 3 1.5.4 3.4 2 2.6 4.4zm15.3 2.9c-3.9 0-6.2-3.1-5.1-7 1.1-3.9 4.4-7 8.9-7 1.9 0 3.4 1 4.2 2.3l-1.3 1.2c-.8-1.3-1.8-2-3.5-2-2.5 0-5.7 2.5-6.5 5.6-.8 3.1 1 5.6 3.5 5.6 1.7 0 3-.6 4.5-2.1l.7 1.2c-1.6 1.4-3.5 2.2-5.4 2.2zm16.6-.1h-1.8l1.7-6.2h-6.8l-1.6 6.2H218l3.7-13.9h1.8l-1.7 6.2h6.8l1.6-6.2h1.8l-3.8 13.9zm11.3 0h-9.4l3.7-13.9h9.1l-.4 1.4h-7.3l-1.2 4.5h6l-.4 1.5h-6l-1.3 5h7.7l-.5 1.5zm3.2-1.5h8.2l-.4 1.4h-9.9l.5-2 11-10.5h-8.2l.4-1.4h9.9l-.5 2-11 10.5zm9.2-2.7l.4-1.3h6.4l-.4 1.3h-6.4zm11.3-9.7h1.9l2.3 10.9 8.1-10.9h1.9L267 149.3h-.9l-2.9-13.9zm26.1 7c-1.1 4-4.7 7-8.9 7-3.8 0-6.2-3-5.1-7 1.1-4 4.7-7 8.9-7 3.8-.1 6.1 3 5.1 7zm-12.2 0c-.8 2.9.7 5.6 3.7 5.6 3.1 0 6-2.7 6.7-5.6.8-2.9-.7-5.6-3.8-5.6-3 0-5.9 2.7-6.6 5.6zm24.2 1.4c-.6 2.2-2.4 5.6-7 5.6s-4.6-3.4-4-5.6l2.3-8.3h1.7l-2.2 8.3c-.2.9-.9 4.1 2.7 4.1s4.6-3.3 4.8-4.1l2.2-8.3h1.8l-2.3 8.3zm10.2 2.7c-.6 1.8-2.2 2.8-4.6 2.9-2.4 0-4.4-1.3-5.2-2.6l1.5-1.2c.5 1.1 1.5 2.3 3.7 2.3 1.8 0 2.7-.5 3.1-1.7.4-1.2-.5-2.1-2.6-3-1.7-.8-3.6-1.9-2.9-4.6.4-1.5 2-3.1 4.7-3.1 2.2 0 3.4.8 4.8 2.3l-1.5 1.1c-.7-1.1-1.7-1.9-3.3-1.9-1.5 0-2.8.9-3.1 2.1-.5 1.9 1.6 2.5 2.8 3 1.5.4 3.4 2 2.6 4.4zm9.5 2.9c-.7 0-1.1-.5-.9-1.2.2-.6.9-1.2 1.5-1.2.7 0 1.1.5.9 1.2-.2.6-.8 1.2-1.5 1.2zm0-3.6l2.8-10.9h2.2l-3.1 10.9H321z" fill="#2f4c9b"/></svg>