<?xml version="1.0" encoding="utf-8"?>
<!-- Generator: Adobe Illustrator 23.1.1, SVG Export Plug-In . SVG Version: 6.00 Build 0)  -->
<svg version="1.1" id="Calque_1" xmlns="http://www.w3.org/2000/svg" xmlns:xlink="http://www.w3.org/1999/xlink" x="0px" y="0px"
	 viewBox="0 0 352 122" style="enable-background:new 0 0 352 122;" xml:space="preserve">
<style type="text/css">
	.st0{fill:#304D9C;}
	.st1{fill:#304D9C;stroke:#1D1D1B;stroke-width:10;stroke-linecap:round;stroke-miterlimit:10;}
	.st2{fill:#FFFFFF;}
	.st3{fill:#FFFFFF;stroke:#304D9C;stroke-miterlimit:10;}
	.st4{fill:#1D1E1C;}
</style>
<path class="st0" d="M330.9,122.4l-4.1-4.2c12.7-12.4,19.6-29,19.6-46.8c0-17.5-6.8-33.9-19.2-46.3C314.9,12.7,298.5,5.9,281,5.9
	c-17.5,0-33.9,6.8-46.3,19.2c-12.4,12.4-19.2,28.8-19.2,46.3c0,17.4,6.8,33.8,19,46.1l-4.2,4.1c-13.4-13.5-20.7-31.3-20.7-50.3
	c0-19.1,7.4-37,20.9-50.5C244,7.4,261.9,0,281,0c19.1,0,37,7.4,50.4,20.9c13.5,13.5,20.9,31.4,20.9,50.5c0,9.8-1.9,19.2-5.8,28.1
	C342.9,108.1,337.6,115.8,330.9,122.4z"/>
<path class="st0" d="M314.2,120c15.3-10.5,25.3-28.2,25.3-48.2c0-32.3-26.2-58.5-58.5-58.5s-58.5,26.2-58.5,58.5
	c0,19.9,9.9,37.4,25.1,48"/>
<path class="st0" d="M281,5.9H158.6c-1.6,0-2.9-1.3-2.9-2.9S157,0,158.6,0H281c1.6,0,2.9,1.3,2.9,2.9S282.6,5.9,281,5.9z"/>
<path class="st0" d="M241.1,18.3h-99.8c-1.6,0-2.9-1.3-2.9-2.9s1.3-2.9,2.9-2.9h99.8c1.6,0,2.9,1.3,2.9,2.9S242.7,18.3,241.1,18.3z"
	/>
<path class="st0" d="M219.8,108.6H21.3c-1.6,0-2.9-1.3-2.9-2.9s1.3-2.9,2.9-2.9h198.5c1.6,0,2.9,1.3,2.9,2.9
	S221.4,108.6,219.8,108.6z"/>
<path class="st1" d="M320.3,80.5"/>
<path class="st1" d="M320.3,84.9"/>
<path class="st2" d="M264,85.7c-1.5,0-1.2,2.7-0.1,2.5l2.8,0.3c0,0,2,2.4,1.6,4.2s-1.5,6-0.8,8.8l-1.7,2l8,6.8l4.3-5
	c0,0,4.6-7,4.5-7.6c0,0,0,0,0,0c0,0,13.9-9.1,14.7-8.7c0,0,3.9-0.1,5.1,0s3-3.2,0-3.2s-8,0-8,0s-9.2,4.1-12.4,4.5
	c-3.2,0.4-8.4,1.3-8.2,1.7c0.2,0.3-1.7-5.1-4.5-6.2H264z"/>
<circle class="st2" cx="281" cy="48.8" r="3.2"/>
<path class="st3" d="M248.8,83.1c0-17.7,14.4-32.1,32.1-32.1c17.7,0,32.1,14.4,32.1,32.1"/>
<path class="st3" d="M318.2,85.7h-74.8c-1.4,0-2.6-1.2-2.6-2.6s1.2-2.6,2.6-2.6h74.8c1.4,0,2.6,1.2,2.6,2.6S319.6,85.7,318.2,85.7z"
	/>
<g>
	<g>
		<path class="st0" d="M301.5,68.3c-3.4-4.2-7.8-7.7-12.8-9.8c-0.6-0.3-0.9-1-0.6-1.6l0,0c0.3-0.6,0.9-0.9,1.5-0.6
			c5.4,2.2,10.1,5.9,13.7,10.5c0.4,0.5,0.3,1.2-0.1,1.6l0,0C302.8,68.9,302,68.9,301.5,68.3z"/>
		<path class="st0" d="M302.4,68.9C302.4,68.9,302.4,68.9,302.4,68.9c-0.4,0-0.7-0.2-1-0.5l0,0c-3.4-4.3-7.8-7.7-12.7-9.8
			c-0.3-0.1-0.6-0.4-0.7-0.7c-0.1-0.3-0.1-0.7,0-1.1c0.3-0.6,1-0.9,1.7-0.7c5.4,2.2,10.1,5.9,13.8,10.5c0.4,0.5,0.4,1.3-0.1,1.8l0,0
			C303.1,68.7,302.8,68.9,302.4,68.9z M289.2,56.3c-0.4,0-0.8,0.2-1,0.6c-0.1,0.3-0.1,0.6,0,0.9c0.1,0.3,0.3,0.5,0.6,0.6
			c4.9,2.2,9.4,5.6,12.8,9.9l0,0c0.2,0.2,0.5,0.4,0.8,0.4c0.3,0,0.6-0.1,0.8-0.4l0,0c0.4-0.4,0.4-1,0.1-1.5
			c-3.6-4.7-8.3-8.3-13.7-10.5C289.5,56.3,289.4,56.3,289.2,56.3z"/>
	</g>
</g>
<g>
	<path class="st0" d="M91.4,66.1c0-3.3,2.3-7.2,7.3-9.6c-1.3-1.4-2.3-3.7-2.3-6.5c0-5.9,5.4-12.2,11.8-12.2c4.3,0,6.2,2,6.2,5.5
		c0,4.6-2.8,6.8-5.4,6.8c-1,0-1.5-0.4-1.7-0.8c0.6-1.3,0.9-2.5,0.9-3.7c0-1.8-0.6-2.4-1.3-2.4c-1.7,0-3.6,3.3-3.6,6.9
		c0,1.6,0.4,3.4,0.8,4.7c1-0.2,2.6-0.4,3.4-0.4c1.8,0,2.2,0.5,2.2,1.2c0,2.7-2.2,5.3-4.5,5.3c-0.9,0-2.1-0.5-3.1-1.3
		c-1.3,1.3-2.1,3.3-2.1,4.6c0,2.3,1.3,3.8,4,3.8c4.4,0,10.2-4.2,12.9-8.3c1,0,1.8,0.4,1.8,1.5c0,3-8.1,13-17.9,13
		C95,74.2,91.4,70.9,91.4,66.1z"/>
	<path class="st0" d="M119.5,71.6c-2.7,0-4.6-2.2-4.6-6.4c0-7,5.8-14.3,10.4-14.3c0.7,0,1,0.1,1.2,0.3l0.1-2.7
		c0.4-0.4,1-0.6,1.6-0.6c3.2,0,4.9,2.1,4.9,3.8c0,0.6-0.1,1.8-0.5,3.1c-1.6,5.9-2.2,8.8-2.2,10c0,0.9,0.2,1.1,0.6,1.1
		c0.9,0,3.3-1.8,6.3-6c1,0,1.7,0.6,1.7,1.4c0,3-7.7,10.5-11.1,10.5c-2,0-3.3-0.8-3.3-3.8c0-0.5,0-1.1,0.1-1.8
		C123.3,70.5,121.1,71.6,119.5,71.6z M126.3,54.3c-2.3,1.5-4.6,5.4-4.6,8.9c0,1.7,0.6,1.9,1.2,1.9c0.7,0,1.3-0.5,1.9-1.2L126.3,54.3
		z"/>
	<path class="st0" d="M138.2,56.2c-0.9-0.1-1.7-0.2-1.7-1.2c0-1.4,1-2.7,2.9-2.8c0-1,0.1-1.7,0.3-3.4c0.4-4.1,2.9-7,6.1-7
		c2.1,0,3.1,0.7,3.1,2.7c0,1.4-0.6,2.6-3,7.5c1.4,0,3.4-0.2,4-0.3c0.6,0.4,0.9,1.3,0.9,2c0,1.8-1.2,3.1-2.7,3.1c-1.1,0-2,0-3.4-0.3
		c-1.3,5.1-1.6,7.7-1.6,8.4c0,1.1,0.3,1.6,1.3,1.6c1.9,0,5.1-2.2,8.3-6.7c0.9,0,1.9,0.7,1.9,1.6c0,2.7-7.1,11.1-12.5,11.1
		c-3.6,0-6-1.9-6-6.1C136,64.9,136.4,62.1,138.2,56.2z"/>
	<path class="st0" d="M168.6,67.5c0-3,4.5-6,7.9-6c2.2,0,2.9,0.9,2.9,2.6c0,3.6-2.5,8.3-5.8,8.3C170.9,72.4,168.6,69.9,168.6,67.5z
		 M177.9,58c-2.6,0-4-2.8-4-5.6c0-2.7,0.7-8.9,2.2-14.4c-0.5-1.2-0.7-2.6-0.7-3.8c0-3.2,4.4-6.9,8.9-6.9c2.6,0,3.4,1,3.4,2.9
		c0,1.6-1,4.8-3.2,8.8c-2,5.7-3.5,11.4-5,18.8C179.2,57.8,178.5,58,177.9,58z"/>
	<path class="st0" d="M188.2,56.2c-0.9-0.1-1.7-0.2-1.7-1.2c0-1.4,1-2.7,2.9-2.8c0-1,0.1-1.7,0.3-3.4c0.4-4.1,2.9-7,6.1-7
		c2.1,0,3.1,0.7,3.1,2.7c0,1.4-0.6,2.6-3,7.5c1.4,0,3.4-0.2,4-0.3c0.6,0.4,0.9,1.3,0.9,2c0,1.8-1.2,3.1-2.7,3.1c-1.1,0-2,0-3.4-0.3
		c-1.3,5.1-1.6,7.7-1.6,8.4c0,1.1,0.3,1.6,1.3,1.6c1.9,0,5.1-2.2,8.3-6.7c0.9,0,1.9,0.7,1.9,1.6c0,2.7-7.1,11.1-12.5,11.1
		c-3.6,0-6-1.9-6-6.1C186,64.9,186.4,62.1,188.2,56.2z"/>
</g>
<path class="st0" d="M329.7,122.5H3.1c-1.6,0-2.9-1.3-2.9-2.9s1.3-2.9,2.9-2.9h326.6c1.6,0,2.9,1.3,2.9,2.9S331.3,122.5,329.7,122.5
	z"/>
<g>
	<path class="st2" d="M289.3,35.1C289.3,35.1,289.3,35,289.3,35.1C289.3,35,289.3,35,289.3,35.1C289.3,35,289.3,35,289.3,35.1z"/>
	<path class="st2" d="M293.3,39c0,2.1-0.8,4.1-2.2,5.6c-0.2,0.3-0.6,0.4-0.9,0.4c-0.3,0-0.6-0.1-0.8-0.3c-0.5-0.5-0.5-1.2-0.1-1.7
		c1-1.1,1.5-2.5,1.5-3.9c0-1.5-0.5-2.8-1.5-3.9c0,0,0,0,0,0c0,0,0,0-0.1-0.1l0,0c-1.2-1.5-1.8-3.3-1.8-5.2c0-1.9,0.7-3.7,1.9-5.2
		c0.4-0.5,1.2-0.6,1.7-0.2c0.5,0.4,0.6,1.2,0.2,1.7c-0.8,1-1.3,2.3-1.3,3.6c0,1.3,0.5,2.6,1.3,3.6c0,0,0,0,0,0
		C292.6,35,293.3,36.9,293.3,39z"/>
</g>
<g>
	<path class="st2" d="M279.4,30.6C279.4,30.6,279.4,30.6,279.4,30.6C279.4,30.6,279.4,30.6,279.4,30.6
		C279.4,30.6,279.4,30.6,279.4,30.6z"/>
	<path class="st2" d="M283.4,34.5c0,2.1-0.8,4.1-2.2,5.6c-0.2,0.3-0.6,0.4-0.9,0.4c-0.3,0-0.6-0.1-0.8-0.3c-0.5-0.5-0.5-1.2-0.1-1.7
		c1-1.1,1.5-2.5,1.5-3.9c0-1.5-0.5-2.8-1.5-3.9c0,0,0,0,0,0c0,0,0,0-0.1-0.1l0,0c-1.2-1.5-1.8-3.3-1.8-5.2c0-1.9,0.7-3.7,1.9-5.2
		c0.4-0.5,1.2-0.6,1.7-0.2c0.5,0.4,0.6,1.2,0.2,1.7c-0.8,1-1.3,2.3-1.3,3.6c0,1.3,0.5,2.6,1.3,3.6c0,0,0,0,0,0
		C282.6,30.5,283.4,32.5,283.4,34.5z"/>
</g>
<g>
	<path class="st2" d="M270,35.1C270,35.1,270,35,270,35.1C270,35,270,35,270,35.1C270,35,270,35,270,35.1z"/>
	<path class="st2" d="M274,39c0,2.1-0.8,4.1-2.2,5.6c-0.2,0.3-0.6,0.4-0.9,0.4c-0.3,0-0.6-0.1-0.8-0.3c-0.5-0.5-0.5-1.2-0.1-1.7
		c1-1.1,1.5-2.5,1.5-3.9c0-1.5-0.5-2.8-1.5-3.9c0,0,0,0,0,0c0,0,0,0-0.1-0.1l0,0c-1.2-1.5-1.8-3.3-1.8-5.2c0-1.9,0.7-3.7,1.9-5.2
		c0.4-0.5,1.2-0.6,1.7-0.2c0.5,0.4,0.6,1.2,0.2,1.7c-0.8,1-1.3,2.3-1.3,3.6c0,1.3,0.5,2.6,1.3,3.6c0,0,0,0,0,0
		C273.3,35,274,36.9,274,39z"/>
</g>
<g>
	<path class="st4" d="M40.7,92.2l1.1,2.8h-1.3l-1.1-2.6h-2.2L36.6,95h-1.1l2.4-8.8h3.4c1.7,0,2.7,1.3,2.2,3.1
		C43.1,90.6,42.2,91.7,40.7,92.2z M39.8,91.4c1,0,2.2-0.9,2.5-2.2c0.3-1.3-0.4-2.2-1.4-2.2h-2.3l-1.2,4.4H39.8z"/>
	<path class="st4" d="M48.7,95h-6l2.4-8.8h5.8l-0.3,0.9H46l-0.8,2.8H49l-0.2,0.9H45L44.1,94H49L48.7,95z"/>
	<path class="st4" d="M57.5,95h-1.1l0.4-1.5c-1.1,1.3-2.3,1.6-3.5,1.6c-2.5,0-3.7-1.9-3-4.5c0.7-2.6,2.8-4.5,5.4-4.5
		c1.3,0,2.3,0.4,2.8,1.3l-0.9,0.7c-0.4-0.6-1.1-1.1-2.1-1.1c-1.9,0-3.4,1.3-4,3.5c-0.5,1.9,0.2,3.5,2.2,3.5c1.9,0,3.4-1.3,3.9-3.1
		h-2.4l0.3-1h3.4L57.5,95z"/>
	<path class="st4" d="M64.5,92.8h-3.8L59.3,95H58l6-8.8h0.6l1.3,8.8h-1.2L64.5,92.8z M64.3,91.9L63.9,88l-2.6,3.9H64.3z"/>
	<path class="st4" d="M72.4,95h-5.8l2.4-8.8h1.1L68,94h4.7L72.4,95z"/>
	<path class="st4" d="M79.2,95h-6l2.4-8.8h5.8l-0.3,0.9h-4.7l-0.8,2.8h3.8l-0.2,0.9h-3.8L74.6,94h4.9L79.2,95z"/>
	<path class="st4" d="M81.2,94h5.2L86.2,95h-6.3l0.3-1.2l7-6.7H82l0.3-0.9h6.3l-0.3,1.2L81.2,94z"/>
	<path class="st4" d="M87.1,92.3l0.2-0.8h4.1l-0.2,0.8H87.1z"/>
	<path class="st4" d="M94.3,86.1h1.2l1.5,6.9l5.2-6.9h1.2L96.8,95h-0.6L94.3,86.1z"/>
	<path class="st4" d="M110.9,90.6c-0.7,2.5-3,4.5-5.6,4.5c-2.4,0-3.9-1.9-3.2-4.5c0.7-2.5,3-4.5,5.6-4.5
		C110,86.1,111.5,88,110.9,90.6z M103.1,90.6c-0.5,1.8,0.4,3.6,2.4,3.6c2,0,3.8-1.7,4.3-3.6c0.5-1.8-0.4-3.5-2.4-3.5
		C105.4,87,103.6,88.7,103.1,90.6z"/>
	<path class="st4" d="M118.5,91.4c-0.4,1.4-1.5,3.6-4.4,3.6c-2.9,0-2.9-2.2-2.6-3.6l1.4-5.3h1.1l-1.4,5.3c-0.2,0.6-0.6,2.6,1.7,2.6
		c2.3,0,2.9-2.1,3.1-2.6l1.4-5.3h1.1L118.5,91.4z"/>
	<path class="st4" d="M125,93.2c-0.4,1.2-1.4,1.8-3,1.8c-1.5,0-2.8-0.8-3.3-1.7l1-0.8c0.3,0.7,1,1.5,2.4,1.5c1.1,0,1.7-0.3,2-1.1
		c0.2-0.7-0.3-1.3-1.6-1.9c-1.1-0.5-2.3-1.2-1.9-3c0.2-1,1.3-2,3-2c1.4,0,2.2,0.5,3.1,1.4l-1,0.7c-0.4-0.7-1.1-1.2-2.1-1.2
		c-1,0-1.8,0.6-2,1.3c-0.3,1.2,1,1.6,1.8,1.9C124.3,90.7,125.5,91.7,125,93.2z"/>
	<path class="st4" d="M134.7,95c-2.5,0-3.9-2-3.2-4.5c0.7-2.5,2.8-4.5,5.6-4.5c1.2,0,2.2,0.6,2.6,1.5l-0.8,0.8
		c-0.5-0.8-1.1-1.3-2.2-1.3c-1.6,0-3.6,1.6-4.1,3.5c-0.5,2,0.6,3.6,2.2,3.6c1.1,0,1.9-0.4,2.9-1.3l0.4,0.8
		C137.2,94.5,135.9,95,134.7,95z"/>
	<path class="st4" d="M145.3,95h-1.1l1.1-3.9H141l-1,3.9h-1.1l2.4-8.8h1.1l-1.1,3.9h4.3l1-3.9h1.1L145.3,95z"/>
	<path class="st4" d="M152.5,95h-6l2.4-8.8h5.8l-0.3,0.9h-4.7l-0.8,2.8h3.8l-0.2,0.9h-3.8l-0.9,3.2h4.9L152.5,95z"/>
	<path class="st4" d="M154.5,94h5.2l-0.3,0.9h-6.3l0.3-1.2l7-6.7h-5.2l0.3-0.9h6.3l-0.3,1.2L154.5,94z"/>
	<path class="st4" d="M160.4,92.3l0.2-0.8h4.1l-0.2,0.8H160.4z"/>
	<path class="st4" d="M167.5,86.1h1.2l1.5,6.9l5.2-6.9h1.2L170,95h-0.6L167.5,86.1z"/>
	<path class="st4" d="M184.1,90.6c-0.7,2.5-3,4.5-5.6,4.5c-2.4,0-3.9-1.9-3.2-4.5c0.7-2.5,3-4.5,5.6-4.5
		C183.3,86.1,184.8,88,184.1,90.6z M176.4,90.6c-0.5,1.8,0.4,3.6,2.4,3.6c2,0,3.8-1.7,4.3-3.6c0.5-1.8-0.4-3.5-2.4-3.5
		C178.7,87,176.9,88.7,176.4,90.6z"/>
	<path class="st4" d="M191.8,91.4c-0.4,1.4-1.5,3.6-4.4,3.6c-2.9,0-2.9-2.2-2.6-3.6l1.4-5.3h1.1l-1.4,5.3c-0.2,0.6-0.6,2.6,1.7,2.6
		c2.3,0,2.9-2.1,3.1-2.6l1.4-5.3h1.1L191.8,91.4z"/>
	<path class="st4" d="M198.3,93.2c-0.4,1.2-1.4,1.8-3,1.8c-1.5,0-2.8-0.8-3.3-1.7l1-0.8c0.3,0.7,1,1.5,2.4,1.5c1.1,0,1.7-0.3,2-1.1
		c0.2-0.7-0.3-1.3-1.6-1.9c-1.1-0.5-2.3-1.2-1.9-3c0.2-1,1.3-2,3-2c1.4,0,2.2,0.5,3.1,1.4l-1,0.7c-0.4-0.7-1.1-1.2-2.1-1.2
		c-1,0-1.8,0.6-2,1.3c-0.3,1.2,1,1.6,1.8,1.9C197.6,90.7,198.8,91.7,198.3,93.2z"/>
	<path class="st4" d="M204.3,95c-0.4,0-0.7-0.3-0.6-0.8c0.1-0.4,0.6-0.8,1-0.8c0.4,0,0.7,0.3,0.6,0.8C205.2,94.7,204.7,95,204.3,95z
		 M204.3,92.8l1.8-7h1.4l-2,7H204.3z"/>
</g>
</svg>
