<svg version="1.1" id="Calque_1" xmlns="http://www.w3.org/2000/svg" x="0" y="0" viewBox="0 0 224.3 224.3" xml:space="preserve"><style>.st0{fill:#51b262}.st1{fill:#fff}</style><path class="st0" d="M112.2 10c56.3 0 102.2 45.8 102.2 102.2 0 56.3-45.8 102.2-102.2 102.2S10 168.5 10 112.2C10 55.8 55.8 10 112.2 10m0-10C50.2 0 0 50.2 0 112.2s50.2 112.2 112.2 112.2 112.2-50.2 112.2-112.2S174.1 0 112.2 0z"/><path class="st1" d="M112.2 22c49.7 0 90.2 40.4 90.2 90.2s-40.5 90.2-90.2 90.2S22 161.9 22 112.2 62.4 22 112.2 22m0-12C55.7 10 10 55.7 10 112.2s45.7 102.2 102.2 102.2 102.2-45.7 102.2-102.2S168.6 10 112.2 10z"/><circle class="st0" cx="112.2" cy="112.2" r="90.2"/><path class="st1" d="M74.5 152.6c-17.7 0-32-14.3-32-32s14.3-32 32-32c9.2 0 18 4 24.1 10.9 1.1 1.2.9 3-.2 4-1.2 1.1-3 .9-4-.2-5-5.7-12.2-9-19.8-9-14.5 0-26.3 11.8-26.3 26.3s11.8 26.3 26.3 26.3c7.6 0 14.8-3.2 19.8-9 1.1-1.2 2.8-1.3 4-.2 1.2 1.1 1.3 2.8.2 4-6.1 6.9-14.9 10.9-24.1 10.9zm81 0c-17.7 0-32-14.3-32-32 0-5.4 1.4-10.8 4-15.5.7-1.4 2.5-1.9 3.9-1.1 1.4.7 1.9 2.5 1.1 3.9-2.2 3.9-3.3 8.3-3.3 12.7 0 14.5 11.8 26.3 26.3 26.3 8 0 15.6-3.6 20.6-9.9 1-1.2 2.8-1.4 4-.4 1.2 1 1.5 2.8.4 4-6.1 7.6-15.3 12-25 12zm-13-67.6H85c-1.8 0-3.2-1.5-3.2-3.2 0-1.8 1.5-3.2 3.2-3.2h57.5c1.8 0 3.2 1.5 3.2 3.2.1 1.7-1.4 3.2-3.2 3.2zm-4-14.2h-17.8c-1.5 0-2.8-1.3-2.8-2.8s1.3-2.8 2.8-2.8h17.8c1.5 0 2.8 1.3 2.8 2.8s-1.3 2.8-2.8 2.8z"/><path class="st1" d="M156.3 125.9c-1.2 0-2.3-.7-2.7-1.9l-17.8-55.1c-.5-1.5.3-3.1 1.9-3.6 1.5-.5 3.1.3 3.6 1.9l17.8 55.1c.5 1.5-.3 3.1-1.9 3.6-.3-.1-.6 0-.9 0z"/></svg>