<svg version="1.1" id="Calque_1" xmlns="http://www.w3.org/2000/svg" x="0" y="0" viewBox="0 0 224.3 224.3" xml:space="preserve"><style>.st0{fill:#c03a8d}.st1{fill:#fff}</style><path class="st0" d="M112.2 10c56.3 0 102.2 45.8 102.2 102.2 0 56.3-45.8 102.2-102.2 102.2S10 168.5 10 112.2C10 55.8 55.8 10 112.2 10m0-10C50.2 0 0 50.2 0 112.2s50.2 112.2 112.2 112.2 112.2-50.2 112.2-112.2S174.1 0 112.2 0z"/><path class="st1" d="M112.2 22c49.7 0 90.2 40.4 90.2 90.2s-40.5 90.2-90.2 90.2S22 161.9 22 112.2 62.4 22 112.2 22m0-12C55.7 10 10 55.7 10 112.2s45.7 102.2 102.2 102.2 102.2-45.7 102.2-102.2S168.6 10 112.2 10z"/><circle class="st0" cx="112.2" cy="112.2" r="90.2"/><path class="st1" d="M117.5 68.2c0 11.5-5.2 21.7-13.3 28.5-2.9-5.3-4.5-11.3-4.5-17.7 0-11.5 5.2-21.7 13.3-28.5 2.9 5.3 4.5 11.3 4.5 17.7zm44 9.3c-8.5 15.5-25 26-44 26-4 0-7.9-.5-11.6-1.3 8.5-15.5 25-26 44-26 4 0 7.9.4 11.6 1.3zm-59.9 25.3c-1.6.5-3.3.7-5.1.7-10.3 0-18.7-8.2-19-18.4 1.6-.5 3.3-.7 5.1-.7 10.2 0 18.6 8.2 19 18.4zm-31 42.1H37.7V94.4h7.5v44.3h25.5v6.2zm38-16.9c0 9.9-7.7 17.2-17.3 17.2-9.6 0-17.3-7.3-17.3-17.2 0-9.9 7.7-17.3 17.3-17.3 9.6 0 17.3 7.4 17.3 17.3zM81 128c0 7.4 4.6 11.6 10.4 11.6s10.4-4.2 10.4-11.6c0-7.5-4.6-11.7-10.4-11.7S81 120.6 81 128zm48.3 17.3c-9.6 0-17.3-7.3-17.3-17.2 0-9.9 7.7-17.3 17.3-17.3 5.1 0 9.6 2.2 12.7 5.7l-4.8 4.3c-2-2.6-4.8-4.4-7.9-4.4-5.7 0-10.4 4.9-10.4 11.7 0 6.7 4.6 11.6 10.4 11.6 3.2 0 6-1.7 7.9-4.4l4.8 4.3c-3.1 3.5-7.6 5.7-12.7 5.7zm45.1-21.2v20.8h-6.9v-3.6c-2.4 3.3-6.7 4-10.1 4-6.3 0-11.2-3.5-11.2-10.1 0-7.6 6.2-11.2 15.3-11.2h6.1c0-4-1.4-7.5-5.8-7.5-3.2 0-5.3 1.1-8.2 3.4l-4.4-3.3c3.5-3.6 8.4-5.8 13.1-5.8 7.9-.1 12.1 4.1 12.1 13.3zm-7 6h-5.1c-6.9 0-9.3 1.6-9.3 4.7 0 3.4 2.8 4.8 5.9 4.8 6.5 0 8.5-2.8 8.5-6.4v-3.1zm13 14.8V92.4h6.9v52.5h-6.9z"/></svg>